<?xml version="1.0" encoding="utf-8"?>
<!-- Generator: Adobe Illustrator 25.0.0, SVG Export Plug-In . SVG Version: 6.00 Build 0)  -->
<svg version="1.1" id="Layer_1" xmlns="http://www.w3.org/2000/svg" xmlns:xlink="http://www.w3.org/1999/xlink" x="0px" y="0px"
	 viewBox="0 0 80.6 24.7" style="enable-background:new 0 0 80.6 24.7;" xml:space="preserve">
<style type="text/css">
	.st0{fill-rule:evenodd;clip-rule:evenodd;fill:#8777E0;}
	.st1{fill:#5271FE;}
</style>
<path d="M32.7-7.9l3.9-10.5h2.2l3.9,10.5h-2.4L39.5-10h-3.9l-0.8,2.1H32.7z M36.3-11.9h2.5l-1.3-3.6L36.3-11.9z M44.2-7.9v-10.5h2.2
	v10.5H44.2z M52.8-7.9v-10.5H55v4.2h4.5v-4.2h2.2v10.5h-2.2v-4.5H55v4.5H52.8z M66.6-7.7c-0.8,0.1-1.5-0.2-2.1-0.8
	c-0.5-0.7-0.8-1.6-0.7-2.4v-4.9h2v4.6c0,0.5,0.1,1,0.4,1.4c0.3,0.3,0.7,0.5,1.2,0.5c0.3,0,0.7-0.1,1-0.3c0.2-0.2,0.4-0.4,0.5-0.7
	c0.1-0.3,0.2-0.6,0.2-0.9v-4.6h2v7.9h-1.8v-1.2c-0.2,0.4-0.5,0.7-0.9,1C67.7-7.8,67.2-7.7,66.6-7.7L66.6-7.7z M77.2-7.7
	c-0.6,0-1.1-0.1-1.6-0.4c-0.4-0.2-0.7-0.6-0.9-0.9v1.2h-1.8v-10.5h2v3.6c0.3-0.4,0.6-0.7,1-0.9c0.4-0.2,0.9-0.4,1.4-0.3
	c0.9-0.1,1.8,0.3,2.5,1c0.7,0.8,1,1.9,0.9,2.9v0.3c0,0.8-0.1,1.6-0.4,2.3c-0.2,0.6-0.6,1-1.2,1.4C78.5-7.9,77.8-7.7,77.2-7.7
	L77.2-7.7z M76.7-9.4c0.5,0,1-0.2,1.3-0.6c0.4-0.5,0.6-1.2,0.5-1.8v-0.3c0-0.6-0.1-1.2-0.5-1.7c-0.3-0.4-0.8-0.6-1.3-0.6
	c-0.4,0-0.7,0.1-1,0.2c-0.3,0.1-0.5,0.4-0.7,0.7c-0.2,0.3-0.3,0.7-0.3,1.1v0.9c0,0.4,0.1,0.8,0.2,1.2c0.2,0.3,0.4,0.5,0.7,0.7
	C76-9.5,76.4-9.4,76.7-9.4z"/>
<path class="st0" d="M5.7-2.2H0v-5.7c0-3.2,2.6-5.7,5.7-5.7c1.5,0,3,0.6,4,1.7l0,0c2.2,2.2,2.2,5.9,0,8.1C8.7-2.8,7.2-2.2,5.7-2.2"
	/>
<path class="st0" d="M18.5-26.9H5.8c-3.2,0-5.8,2.6-5.8,5.8v5.9h12.6c3.2,0,5.9-2.6,5.9-5.9c0,0,0,0,0,0V-26.9z"/>
<g>
	<path class="st1" d="M9.2,8.6c0.9-0.5,1.6-0.9,2.4-1.4c0.3-0.2,0.5,0,0.7,0.1c2.4,1.4,4.8,2.7,7.1,4.1c0.1,0.1,0.3,0.2,0.5,0.3
		c0-0.3,0-0.5,0-0.7c0-1.9,0-3.9,0-5.8c0-0.5,0.1-0.5,0.5-0.3c0.6,0.4,1.1,0.7,1.7,1c0.3,0.1,0.4,0.3,0.4,0.6c0,3.8,0,7.6,0,11.4
		c0,0.3-0.1,0.5-0.4,0.6c-3.3,1.9-6.5,3.8-9.8,5.6c-0.3,0.2-0.5,0.1-0.8,0c-1.9-1.1-3.8-2.2-5.7-3.3c-0.3-0.2-0.4-0.3-0.4-0.6
		c0-0.7,0-1.4,0-2.1c0-0.5,0.2-0.5,0.5-0.3c1.8,1.1,3.7,2.1,5.5,3.2c0.4,0.2,0.6,0.2,1,0c2.3-1.3,4.6-2.7,6.9-4
		c0.4-0.2,0.5-0.4,0.5-0.8c0.1-1.1-0.3-1.6-1.2-2.2c-3-1.6-6-3.4-9-5.1C9.6,8.9,9.4,8.8,9.2,8.6z"/>
	<path class="st1" d="M18.6,7c-1-0.6-1.9-1.1-2.8-1.6c-1.1-0.6-2.3-1.3-3.4-1.9c-0.3-0.2-0.5-0.2-0.8,0C9.3,4.8,6.9,6.2,4.5,7.6
		C4.3,7.7,4.2,7.9,4.2,8.3C4,9.3,4.4,10,5.4,10.5c3.1,1.7,6.1,3.5,9.1,5.2c0.1,0.1,0.2,0.1,0.5,0.3c-0.9,0.5-1.7,1-2.6,1.5
		c-0.2,0.1-0.4-0.1-0.6-0.2c-2.4-1.4-4.7-2.7-7.1-4.1c-0.6-0.3-0.6-0.3-0.6,0.3c0,1.9,0,3.9,0,5.8c0,0.4,0,0.6-0.5,0.3
		c-0.6-0.4-1.2-0.7-1.8-1.1c-0.2-0.1-0.3-0.3-0.3-0.5c0-3.8,0-7.6,0-11.4C1.5,6.2,1.7,6.1,2,6c2.3-1.3,4.7-2.7,7-4
		c0.9-0.5,1.8-1,2.6-1.5c0.3-0.2,0.6-0.2,0.9,0c1.9,1.1,3.8,2.2,5.7,3.3c0.2,0.1,0.3,0.3,0.3,0.5C18.6,5.1,18.6,6,18.6,7z"/>
	<path d="M29.2,17.4c-0.8,0-1.5-0.1-2.2-0.4c-1.1-0.5-1.6-1.5-1.9-2.6c0-0.3,0.1-0.3,0.3-0.3c0.2,0,0.4,0,0.6,0
		c0.6-0.1,1-0.1,1.2,0.6c0.4,1.2,2.5,1.5,3.4,0.6c0.6-0.6,0.5-1.4-0.3-1.8c-0.7-0.3-1.4-0.4-2.1-0.6c-0.6-0.1-1.1-0.4-1.6-0.7
		C25,11.1,25,8.8,26.7,7.9c1.6-0.8,3.3-0.8,4.9,0.2c0.7,0.4,0.9,1.1,1.1,1.9c0,0.2,0,0.3-0.3,0.3c-0.2,0-0.4,0-0.6,0
		c-0.6,0.1-1,0.1-1.3-0.7C30.2,9,29.1,8.8,28,9.1c-0.3,0.1-0.5,0.2-0.7,0.5c-0.2,0.4,0,0.8,0.5,1.1c0.6,0.3,1.2,0.4,1.9,0.6
		c0.5,0.2,1,0.3,1.5,0.5c1.1,0.5,1.7,1.4,1.7,2.7c0,1.2-0.7,2.3-1.9,2.7C30.4,17.4,29.8,17.4,29.2,17.4z"/>
	<path d="M53.4,17.4c-0.6,0-1.2-0.1-1.8-0.3c-1.3-0.5-1.9-1.5-2.2-2.8c-0.1-0.3,0.1-0.3,0.3-0.3c0.2,0,0.3,0,0.5,0
		c0.6-0.1,1.1-0.2,1.3,0.7c0.4,1.2,2.4,1.5,3.4,0.6c0.6-0.6,0.5-1.4-0.3-1.8c-0.7-0.3-1.4-0.4-2.1-0.6c-0.6-0.2-1.2-0.4-1.7-0.8
		c-1.5-1.1-1.4-3.3,0.1-4.2c1.3-0.8,3.8-0.7,5,0.2c0.6,0.5,0.9,1.1,1,1.9c0,0.2,0,0.3-0.3,0.3c-0.2,0-0.5,0-0.7,0
		c-0.5,0-1.1,0.2-1.2-0.6c-0.1-0.4-0.4-0.6-0.8-0.7C53.3,9,52.7,9,52.1,9.2c-0.3,0.1-0.5,0.3-0.5,0.7c0,0.3,0.1,0.6,0.4,0.8
		c0.5,0.3,1.1,0.4,1.6,0.6c0.6,0.2,1.3,0.3,1.9,0.6c1.2,0.5,1.8,1.5,1.7,2.8c-0.1,1.2-0.8,2.2-2,2.6C54.7,17.4,54,17.4,53.4,17.4z"
		/>
	<path d="M36.6,14.2c-1.1,0.5-1,1.5-0.9,2.4c0,0.6-0.1,0.7-0.7,0.7c-1.2-0.1-1.2,0-1.2-1.2c0-2.7,0-5.4,0-8c0-0.4,0.1-0.5,0.5-0.5
		c0.4,0,1-0.1,1.3,0.1c0.3,0.3,0.1,0.9,0.1,1.3c0,1.2,0,2.4,0,3.8c0.7-0.8,1.3-1.4,1.8-2.1c0.2-0.3,0.5-0.4,0.9-0.4
		c0.5,0,1.1,0,1.8,0c-0.7,0.8-1.4,1.5-2.1,2.2c-0.3,0.3-0.3,0.5-0.1,0.8c0.8,1.3,1.5,2.6,2.3,4c-0.6,0-1.2,0-1.8,0
		c-0.3,0-0.3-0.2-0.4-0.3C37.6,16,37.1,15.1,36.6,14.2z"/>
	<path d="M61,15.3c0.5-1.6,1-3,1.5-4.5c0.1-0.4,0.3-0.6,0.7-0.5c0.3,0,0.6,0,0.9,0c0.3,0,0.4,0,0.3,0.4c-0.9,2.5-1.8,5.1-2.8,7.6
		c-0.6,1.6-1.5,2.1-3.2,1.9c-0.4,0-0.6-0.2-0.6-0.6c0-0.2,0-0.3,0-0.5c-0.1-0.3,0.1-0.4,0.4-0.4c0.9,0.1,1.3-0.2,1.6-0.9
		c0.1-0.3,0.1-0.6,0-0.9c-0.8-2-1.6-4.1-2.3-6.1c-0.2-0.4-0.1-0.5,0.4-0.5c1.4,0,1.4,0,1.9,1.3C60.1,12.8,60.5,13.9,61,15.3z"/>
	<path d="M66.8,11.2c0.8-0.9,1.8-1.3,3-1c0.9,0.2,1.5,0.8,1.6,1.7c0.2,1.7,0,3.4,0.1,5.1c0,0.2,0,0.3-0.3,0.3c0,0,0,0-0.1,0
		c-1.6,0.1-1.6,0.1-1.6-1.4c0-1,0-2.1,0-3.1c0-0.9-0.3-1.2-1-1.3c-0.8,0-1.4,0.4-1.5,1.2c-0.2,0.8-0.1,1.6-0.1,2.4
		c0,0.6,0,1.2,0,1.8c0,0.3-0.1,0.4-0.4,0.4c-1.5,0-1.5,0.1-1.5-1.4c0-1.7,0-3.4,0-5.1c0-0.4,0.1-0.5,0.5-0.5c0.1,0,0.2,0,0.3,0
		C66.7,10.2,66.7,10.2,66.8,11.2z"/>
	<path d="M75.6,17.4c-2.2,0-3.5-1.5-3.4-3.8c0.1-2.7,2.3-4.2,4.8-3.3c0.8,0.3,1.3,0.9,1.7,1.7c0.1,0.2,0.1,0.4-0.2,0.4
		c-0.3,0-0.6,0.1-0.8,0.1c-0.4,0.1-0.7,0.1-0.9-0.4c-0.4-0.9-1.9-0.8-2.3,0.1c-0.5,1-0.4,2.1,0.1,3.1c0.3,0.5,0.8,0.6,1.3,0.5
		c0.5,0,0.9-0.3,1.1-0.8c0.1-0.5,0.4-0.5,0.8-0.4c0.2,0,0.3,0.1,0.5,0.1c0.8,0.1,0.8,0.1,0.5,0.8C78.1,16.8,77.1,17.4,75.6,17.4z"/>
	<path d="M43.8,12.4c0-1.5,0-2.9,0-4.4c0-0.4,0.1-0.5,0.5-0.5c1.4,0,1.4,0,1.4,1.4c0,2.6,0,5.2,0,7.8c0,0.4-0.1,0.5-0.5,0.5
		c-0.4,0-1,0.1-1.3-0.1c-0.3-0.3-0.1-0.9-0.1-1.3C43.7,14.7,43.8,13.6,43.8,12.4z"/>
	<path d="M46.8,12.4c0-1.5,0-2.9,0-4.4c0-0.3,0.1-0.4,0.4-0.4c1.5,0,1.5,0,1.5,1.4c0,2.6,0,5.2,0,7.8c0,0.4-0.1,0.5-0.5,0.5
		c-1.4,0-1.4,0-1.4-1.4C46.8,14.7,46.8,13.5,46.8,12.4z"/>
	<path d="M42.6,13.8c0,1,0,2.1,0,3.1c0,0.3-0.1,0.4-0.4,0.4c-1.5,0-1.5,0-1.5-1.4c0-1.7,0-3.5,0-5.2c0-0.3,0.1-0.5,0.4-0.5
		c1.4,0,1.4,0,1.4,1.4C42.6,12.3,42.6,13.1,42.6,13.8z"/>
	<path d="M41.6,9.3c-0.9,0-0.9,0-0.9-0.9c0-0.2,0-0.3,0-0.5c0-0.2,0.1-0.3,0.3-0.3c0.1,0,0.3,0,0.4,0c1.2,0,1.1,0,1.2,1.2
		c0,0.5-0.1,0.6-0.6,0.5C41.9,9.3,41.8,9.3,41.6,9.3z"/>
</g>
</svg>
