<svg width="80.577" height="24.67" xmlns="http://www.w3.org/2000/svg" viewBox="0 0 79.45 45.71"><defs><style>.cls-1{fill:#fff;}</style></defs><path class="cls-1" d="M31.76,19.13l-.37-.81A1.32,1.32,0,0,1,32,18c1.5-.69,3-1.4,4.49-2.11s3-1.38,4.48-2.14c.26-.13.22.14.32.22a1.45,1.45,0,0,1,.16.89c-.17-.12-.24.07-.35.13l-1.55.74c-1.38.63-2.76,1.29-4.14,1.93-1,.49-2,1-3.07,1.46C32.13,19.19,31.94,19.32,31.76,19.13Z"/><path class="cls-1" d="M45.27,23.44a1.86,1.86,0,0,1,.27.59,1,1,0,0,0,.16.44c.17.29.07.44-.2.57l-4.37,2.05-3,1.39c-.42.2-.85.37-1.26.59a.62.62,0,0,1-.5,0,1.3,1.3,0,0,1-.37-.83l1.46-.7c1-.46,2-.95,3.05-1.42L45,24.1c.21-.1.32-.2.2-.44C45.13,23.58,45.06,23.43,45.27,23.44Z"/><path class="cls-1" d="M33.28,22.36l-.48-1a1,1,0,0,0,.66-.09l5.72-2.69c1-.47,2-.88,2.9-1.39a.28.28,0,0,1,.25,0,1.43,1.43,0,0,1,.52,1.11.81.81,0,0,0-.69.08c-2.43,1.13-4.85,2.28-7.28,3.42l-1.22.58C33.54,22.37,33.42,22.44,33.28,22.36Z"/><path class="cls-1" d="M42.32,17.14l-1.61.77-6.9,3.27a2.71,2.71,0,0,0-.49.22.34.34,0,0,1-.52-.08,2.66,2.66,0,0,1-.31-.66,9.64,9.64,0,0,0,1.8-.79l7.15-3.35c.17-.08.3-.28.53-.21C42.19,16.55,42.45,16.76,42.32,17.14Z"/><path class="cls-1" d="M31.76,19.13a.55.55,0,0,0,.45-.08c1.5-.72,3-1.44,4.51-2.14,1.33-.63,2.67-1.24,4-1.86a1.41,1.41,0,0,0,.41-.25c.15-.15.17,0,.24.07.28.14.27.39.27.65a.73.73,0,0,1-.42.33c-1.93.93-3.88,1.83-5.81,2.74-.94.44-1.87.9-2.82,1.32-.13.06-.29.23-.44,0Z"/><path class="cls-1" d="M32.15,19.93a2.51,2.51,0,0,0,1.09-.42c1.53-.7,3-1.43,4.55-2.15l3.33-1.56a5.26,5.26,0,0,0,.47-.27.8.8,0,0,1,.36.81c-1,.55-2.11,1-3.18,1.52L33,20.59c-.16.07-.33.18-.52.07A3.24,3.24,0,0,1,32.15,19.93Z"/><path class="cls-1" d="M36.46,29.09a3.45,3.45,0,0,0,1.23-.49c2.31-1.07,4.6-2.16,6.9-3.25l1-.44c.17-.08.21-.15.13-.34s-.23-.33-.14-.54a7.18,7.18,0,0,1,.54,1.16c0,.13.09.21.09.33a.3.3,0,0,1,0,.1,3.28,3.28,0,0,1-.86.47l-5.92,2.78c-.81.38-1.61.8-2.46,1.12A1,1,0,0,1,36.46,29.09Z"/><path class="cls-1" d="M46.66,26.44c.35.64.64,1.31.93,2-.16,0-.18-.09-.25-.17l-.05-.09a.8.8,0,0,0-.15-.17c-.15-.08-.26,0-.38.08-1.94.87-3.86,1.79-5.79,2.7-1.1.51-2.23,1-3.28,1.59-.06,0-.11,0-.17,0a2.14,2.14,0,0,1-.19-.9c0-.08,0-.18.13-.19a5.2,5.2,0,0,0,1.48-.61L44.63,28c.55-.26,1.09-.55,1.66-.77.25-.1.44-.22.28-.54C46.54,26.61,46.45,26.45,46.66,26.44Z"/><path class="cls-1" d="M46.66,26.44c-.1.07,0,.18,0,.23.23.35,0,.47-.27.6l-4.82,2.26c-1.24.58-2.48,1.15-3.7,1.76-.16.08-.37-.08-.46.15-.27-.17-.25-.45-.28-.72s.17-.19.29-.24c2.78-1.3,5.54-2.62,8.31-3.91l.07,0c.52-.24.52-.24.35-.79a.55.55,0,0,1,0-.18v-.08s.06,0,.09,0A4.56,4.56,0,0,1,46.66,26.44Z"/><path class="cls-1" d="M34.49,24.91,34.07,24a6.34,6.34,0,0,0,1.63-.69c1.89-.88,3.77-1.76,5.65-2.66L42.87,20c.39-.18.4-.17.31-.61a.37.37,0,0,1,0-.18.31.31,0,0,1,0-.1.06.06,0,0,1,.09,0c0,.38.31.66.39,1,0,.17.18.3.08.48-.81.47-1.68.83-2.52,1.23L38.1,23.28l-3.31,1.55A.44.44,0,0,1,34.49,24.91Z"/><path class="cls-1" d="M43.26,19.12a.42.42,0,0,0,.06.38c.16.26,0,.37-.2.47l-2.84,1.31Q37.39,22.65,34.52,24a.54.54,0,0,1-.45,0l-.34-.73a3.35,3.35,0,0,0,1.12-.41c1.9-.91,3.82-1.79,5.72-2.7l2.31-1.08C43,19.06,43.14,18.93,43.26,19.12Z"/><path class="cls-1" d="M45.27,23.44c-.15.1,0,.2,0,.27.17.25,0,.33-.17.43-1,.46-2,.93-3,1.41-1.83.86-3.65,1.73-5.48,2.58a2.66,2.66,0,0,1-.5.16.57.57,0,0,1-.32-.67c.1-.13.27-.15.41-.22l5-2.38c1.08-.51,2.16-1,3.24-1.52.43-.19.46-.25.33-.61a1.12,1.12,0,0,1-.16-.43c0-.07,0-.15.12-.12A6.89,6.89,0,0,1,45.27,23.44Z"/><path class="cls-1" d="M30.44,14.14a2.33,2.33,0,0,1,1.12-1.07c3.9-1.85,7.8-3.68,11.71-5.52l.07,0a.14.14,0,0,1-.05.19A10.39,10.39,0,0,0,42,9h-.1a.5.5,0,0,0-.46.06c-1.86.91-3.74,1.77-5.61,2.66-1.62.77-3.25,1.51-4.87,2.28A.61.61,0,0,1,30.44,14.14Z"/><path class="cls-1" d="M33.28,22.36c.5-.23,1-.44,1.49-.68,1.47-.68,2.92-1.38,4.38-2.07L42.51,18c.26-.13.18.2.33.22s.17.12.19.23a.35.35,0,0,1,0,.11,1,1,0,0,1-.41.3c-1.88.91-3.78,1.77-5.66,2.67l-2.61,1.23c-.62.3-.63.29-1-.28Z"/><path class="cls-1" d="M30.53,16.49a1.11,1.11,0,0,1-.22-.51.16.16,0,0,1,0-.16.49.49,0,0,1,.31-.24c2.23-1,4.44-2.09,6.66-3.13L40.34,11l.33-.16c.33-.13.43-.07.5.31a2.8,2.8,0,0,1,0,.29c0,.11,0,.23-.13.3a.48.48,0,0,0-.45,0c-.92.42-1.83.86-2.75,1.29-2.27,1.08-4.55,2.13-6.82,3.21A1.83,1.83,0,0,1,30.53,16.49Z"/><path class="cls-1" d="M30.53,16.49a4.11,4.11,0,0,1,1.23-.68c.93-.46,1.87-.87,2.81-1.31l6.16-2.9c.15-.07.29-.14.27.12a1.72,1.72,0,0,1,0,1.14c-.23.11-.17-.1-.21-.19s0-.19-.05-.32c-.36.14-.72.33-1.07.5-1.85.88-3.71,1.74-5.56,2.61l-2.81,1.33c-.19.09-.37.25-.61.14A1,1,0,0,1,30.53,16.49Z"/><path class="cls-1" d="M30.44,14.14a9.53,9.53,0,0,0,1.76-.78c2.31-1.06,4.6-2.16,6.9-3.25L41.55,9c.14-.06.3-.21.4,0s-.08.28-.14.41a1.83,1.83,0,0,1-.18.3.27.27,0,0,1-.14.07,2,2,0,0,0-.75.27c-2.68,1.27-5.37,2.51-8,3.79-.81.39-1.65.73-2.44,1.17a.09.09,0,0,1-.1,0A1.33,1.33,0,0,1,30.44,14.14Z"/><path class="cls-1" d="M41.15,14c-.09-.17-.09-.17-.29-.08l-6.08,2.87-3.15,1.46a2.25,2.25,0,0,1-.24.08,2.46,2.46,0,0,1-.28-.59,25.09,25.09,0,0,1,2.33-1.14l3.17-1.49c1.37-.65,2.76-1.28,4.12-1.95a.56.56,0,0,1,.21-.06.13.13,0,0,1,.1,0c.07.13,0,.3.14.42A.39.39,0,0,1,41.15,14Z"/><path class="cls-1" d="M44.76,22.34c-.11.21.07.35.12.52a4.29,4.29,0,0,1-1.11.61l-4.21,2c-1.22.57-2.43,1.15-3.65,1.71a.5.5,0,0,1-.31.08.22.22,0,0,1-.15-.08.94.94,0,0,1-.21-.56c.17-.18.41-.2.61-.3,2-.91,3.93-1.84,5.89-2.77.8-.38,1.61-.74,2.41-1.13.15-.08.33-.14.24-.38a2.29,2.29,0,0,0-.1-.23,2.92,2.92,0,0,1-.19-.49.16.16,0,0,1,.06-.14A4.44,4.44,0,0,1,44.76,22.34Z"/><path class="cls-1" d="M30.16,15a1.11,1.11,0,0,1,.42-.28l8-3.76,2.65-1.22c.1,0,.21-.16.32,0s0,.21,0,.31-.06.26-.2.31a1.7,1.7,0,0,0-.66.21c-1.83.89-3.68,1.74-5.53,2.6-1.41.67-2.82,1.35-4.24,2-.24.11-.47.25-.71.36A1.1,1.1,0,0,1,30.16,15Z"/><path class="cls-1" d="M33.35,22.5s.06,0,.07,0c.31.42.31.43.81.2l4-1.89,4.43-2.08c.13-.06.2-.17.33-.22.13.15.34.26.29.52a.13.13,0,0,1,0,.06c-.1-.06-.18,0-.27,0l-4.25,2L34.19,23.3a.5.5,0,0,1-.46,0A4.52,4.52,0,0,1,33.35,22.5Z"/><path class="cls-1" d="M41,13.11l-7.29,3.47-2.19,1a.74.74,0,0,1-.41.13l-.2-.37a.45.45,0,0,1,.29-.25c1.75-.8,3.49-1.63,5.23-2.45,1-.48,2-.95,3.07-1.45.4-.2.83-.35,1.22-.57a.22.22,0,0,1,.21,0c0,.1,0,.22.07.3A.15.15,0,0,1,41,13.11Z"/><path class="cls-1" d="M44.16,21.15v.17c0,.23-.18.27-.32.33l-4.07,1.92-3.37,1.58a13.77,13.77,0,0,1-1.36.61c-.2,0-.17-.26-.31-.34l-.07-.15c.61-.33,1.25-.59,1.88-.89l4.73-2.23,2.22-1c.14-.07.35-.11.31-.35,0-.08,0-.16,0-.25s-.17-.26-.07-.43A3.48,3.48,0,0,1,44.16,21.15Z"/><path class="cls-1" d="M40.93,12.6a14.65,14.65,0,0,1-1.73.86c-1,.49-2,.92-3,1.39l-5.31,2.51-.17-.43a14.06,14.06,0,0,0,1.86-.83c1.94-.9,3.87-1.83,5.8-2.75l2.48-1.14C41,12.34,40.91,12.48,40.93,12.6Z"/><path class="cls-1" d="M35,25.71l8.24-3.89a2.46,2.46,0,0,0,.91-.5l.22.44c0,.14-.18.19-.3.25C42,23,39.92,24,37.84,25c-.79.36-1.56.74-2.35,1.09a.43.43,0,0,1-.45,0S35,26,35,26A.25.25,0,0,1,35,25.71Z"/><path class="cls-1" d="M47.15,32.17a.77.77,0,0,1-.41.34L34.88,38.14a.48.48,0,0,1-.17,0c-.06-.26.21-.28.32-.42a6.55,6.55,0,0,0,.81-.67A.39.39,0,0,1,36,37a2.78,2.78,0,0,0,.92-.35c1.83-.88,3.67-1.73,5.51-2.6,1.42-.66,2.83-1.35,4.27-2A.79.79,0,0,1,47,32C47.14,32,47.24,32,47.15,32.17Z"/><path class="cls-1" d="M45.76,15.38a.89.89,0,0,1-.21.33,20,20,0,0,0-1.38-3.23c-.14-.34-.33-.65-.47-1a1,1,0,0,0-.38-.53.45.45,0,0,1-.1-.13,1.23,1.23,0,0,1,.06-.5,1.29,1.29,0,0,0,0-.44.44.44,0,0,1,.07-.22c.28-.15.4.06.5.25.21.39.38.79.56,1.19.55,1.19,1.16,2.35,1.66,3.57a.43.43,0,0,1,0,.11A4.24,4.24,0,0,0,45.76,15.38Z"/><path class="cls-1" d="M29.43,34.86a2.92,2.92,0,0,1,.44-.66,14.38,14.38,0,0,0,2.2.87c.84.32,1.69.61,2.54.92.17.06.36.12.39.34s0,.49-.28.62c-1.56-.58-3.13-1.13-4.7-1.71C29.81,35.16,29.5,35.19,29.43,34.86Z"/><path class="cls-1" d="M44.88,6.82a1.16,1.16,0,0,1,.49-.23c.21-.09.32,0,.4.19A11.4,11.4,0,0,1,46.34,8c.45,1.21,1.09,2.34,1.59,3.52a1.06,1.06,0,0,1,.12.42,9.94,9.94,0,0,1-.89,1.33.11.11,0,0,1,0-.09.57.57,0,0,1,.08-.26.78.78,0,0,0,.07-1c-.78-1.46-1.32-3-2.06-4.52C45.1,7.19,45,7,44.88,6.82Z"/><path class="cls-1" d="M29.43,34.86a5.38,5.38,0,0,0,1.4.58c1.16.44,2.35.84,3.52,1.25.14.05.29.09.36.24s0,.21,0,.31-.1.3-.3.29c-1.12-.46-2.27-.82-3.4-1.24-.54-.21-1.08-.37-1.61-.59-.18-.07-.36-.15-.25-.4A1.43,1.43,0,0,1,29.43,34.86Z"/><path class="cls-1" d="M43.35,10.33l-.08.51c-.15,0-.22-.07-.28-.17-.33-.55-.67-1.09-1-1.66a4.44,4.44,0,0,1,1.14-1.3c.06-.06.15-.08.17-.18a13.64,13.64,0,0,1,1.4-.64c.09.14,0,.22-.08.32a8.09,8.09,0,0,0-.46.73c-.13.25-.25.49-.36.75s-.18.7-.42,1v.22C43.32,10,43.44,10.2,43.35,10.33Z"/><path class="cls-1" d="M34.92,36.34c-.09-.29-.38-.28-.59-.35-1.36-.51-2.74-1-4.11-1.48-.16-.06-.34-.09-.35-.31a3.56,3.56,0,0,1,.43-.66.85.85,0,0,0,.53.36l3.68,1.33c.6.22.6.21.58.86a.51.51,0,0,1,0,.17A.13.13,0,0,1,34.92,36.34Z"/><path class="cls-1" d="M44.44,22c.19.17.16.3-.07.4l-4.79,2.25c-1.07.51-2.13,1-3.2,1.52a5.44,5.44,0,0,1-1.09.45c-.17,0-.15-.16-.21-.24l0-.13c1.61-.71,3.2-1.48,4.8-2.24,1.4-.65,2.8-1.3,4.19-2C44.21,22,44.32,21.88,44.44,22Z"/><path class="cls-1" d="M44.59,7.18c0-.1.16-.16.15-.29a.13.13,0,0,1,.14-.07c.2,0,.26.21.33.36.37.86.79,1.7,1.15,2.56s.69,1.51,1,2.26c.24.5.24.55-.17,1-.17,0-.22-.18-.29-.31-.43-.83-.74-1.71-1.13-2.56s-.75-1.61-1.14-2.41C44.59,7.53,44.48,7.38,44.59,7.18Z"/><path class="cls-1" d="M29.13,35.3c0,.21.13.25.29.31L34,37.27c.14,0,.3.08.38.24a.4.4,0,0,1-.3.54L29,36.21c-.15-.05-.35-.1-.27-.34A2.15,2.15,0,0,1,29.13,35.3Z"/><path class="cls-1" d="M28.76,35.87c0,.16.14.2.27.25l4.68,1.68a.91.91,0,0,1,.41.22.49.49,0,0,1-.39.54c-1.6-.62-3.22-1.17-4.83-1.75a2.13,2.13,0,0,1-.41-.18c-.09-.05-.16-.11-.09-.23A1.77,1.77,0,0,1,28.76,35.87Z"/><path class="cls-1" d="M48.05,12c-.59-1.24-1.23-2.45-1.72-3.73-.19-.5-.45-1-.67-1.46a.27.27,0,0,0-.29-.17A2,2,0,0,1,46,6.3c.24-.09.31.1.37.25.56,1.51,1.34,2.91,2,4.38a.55.55,0,0,1,0,.58A1.3,1.3,0,0,1,48.05,12Z"/><path class="cls-1" d="M35,36.12c0-.61,0-.61-.57-.82-1.31-.47-2.62-1-3.93-1.42-.2-.07-.25-.16-.2-.34a1.32,1.32,0,0,1,.3-.44l4.24,1.53a.51.51,0,0,1,.4.5,2.15,2.15,0,0,1-.05.72C35.16,36,35.17,36.11,35,36.12Z"/><path class="cls-1" d="M48.34,11.51c.07-.48-.25-.84-.42-1.24-.47-1-1-2.09-1.48-3.13a4.51,4.51,0,0,1-.17-.52c-.05-.15-.09-.31-.3-.32a1.13,1.13,0,0,1,.46-.21c.25-.13.32.08.4.24.39.75.74,1.54,1.1,2.31.27.56.55,1.11.79,1.69a.6.6,0,0,1,.06.52A2.92,2.92,0,0,1,48.34,11.51Z"/><path class="cls-1" d="M47.15,32.17c0-.24-.17-.1-.26-.06l-1.72.79-5.65,2.67-3.21,1.5c-.09,0-.19.12-.29,0a.57.57,0,0,1,.37-.48,6.32,6.32,0,0,0,1.51-.65C41,34.5,44,33.07,47.07,31.62c.12-.05.24-.14.38-.05s0,.16,0,.23A.59.59,0,0,1,47.15,32.17Z"/><path class="cls-1" d="M35.14,35.09c0-.21-.11-.3-.29-.36L31,33.35c-.15-.06-.31-.09-.38-.25a3.16,3.16,0,0,1,.44-.66,1.39,1.39,0,0,0,.56.33c1.15.43,2.32.83,3.47,1.26a.55.55,0,0,1,.15.19,1.14,1.14,0,0,1,0,.85A.09.09,0,0,1,35.14,35.09Z"/><path class="cls-1" d="M28.4,36.4c0,.22.26.21.4.27,1.4.51,2.81,1,4.21,1.5a2.06,2.06,0,0,1,.74.37.08.08,0,0,1,.07.07l-.56.22a.53.53,0,0,1-.39,0c-1.47-.55-3-1.07-4.44-1.61-.16-.06-.41-.07-.32-.37A1.6,1.6,0,0,1,28.4,36.4Z"/><path class="cls-1" d="M47.9,30.77a.77.77,0,0,1-.14.44.08.08,0,0,1-.09,0,.41.41,0,0,1-.05-.09c-.07-.16-.16-.06-.24,0-1.67.8-3.37,1.58-5.05,2.38l-5,2.35c-.13.06-.28.19-.41,0a.3.3,0,0,1,.14-.33l7-3.28c1.08-.5,2.16-1,3.24-1.53.17-.09.35-.23.57-.12C47.88,30.62,47.88,30.7,47.9,30.77Z"/><path class="cls-1" d="M48.78,10.85a3.11,3.11,0,0,0-.37-1c-.55-1.18-1.12-2.35-1.68-3.52-.06-.13-.11-.28-.3-.25a2.23,2.23,0,0,1,.64-.31c.24,0,.28.21.35.36C48,7.37,48.57,8.58,49.16,9.8c.12.25,0,.42-.09.61A1.09,1.09,0,0,1,48.78,10.85Z"/><path class="cls-1" d="M48,29.59a1.43,1.43,0,0,1,0,.74s-.07,0-.1,0a.2.2,0,0,1,0-.09,1.24,1.24,0,0,1,0-.27c0-.24-.19-.09-.27,0-.55.28-1.12.53-1.68.79-2.68,1.26-5.35,2.52-8,3.77-.13.06-.31.23-.39-.07a.36.36,0,0,1,.08-.36.17.17,0,0,1,.1,0A5.89,5.89,0,0,0,39,33.47C41.64,32.2,44.34,31,47,29.68a2.07,2.07,0,0,1,.75-.28C47.88,29.42,47.9,29.52,48,29.59Z"/><path class="cls-1" d="M43.78,20.51l.08.22c0,.18-.2.24-.34.31-1.52.73-3,1.44-4.56,2.15-1.05.5-2.1,1-3.14,1.49l-.84.37a.35.35,0,0,1-.46-.06l0-.08c.51-.26,1-.52,1.53-.77l3-1.4Z"/><path class="cls-1" d="M47.66,28.57a.79.79,0,0,1,.14.37.14.14,0,0,1-.15,0c-.19-.18-.36-.05-.53,0l-3.51,1.64L38.2,33.19a1,1,0,0,0-.48.37.11.11,0,0,1-.11,0,.37.37,0,0,1,0-.34.75.75,0,0,1,.1-.2,12.44,12.44,0,0,1,1.93-1c.95-.46,1.92-.89,2.88-1.35,1.46-.69,2.92-1.36,4.37-2.06C47.1,28.51,47.37,28.29,47.66,28.57Z"/><path class="cls-1" d="M30.17,15.53c.14-.3.46-.34.71-.46l3-1.39c2.27-1.07,4.53-2.15,6.81-3.2.18-.09.37-.31.62-.15a.28.28,0,0,1,0,.2.23.23,0,0,1-.12.1,16,16,0,0,0-1.63.75l-7,3.27c-.61.29-1.22.6-1.85.87a.58.58,0,0,0-.39.31V16A.91.91,0,0,1,30.17,15.53Z"/><path class="cls-1" d="M49.07,10.41c.22-.62-.27-1-.46-1.53-.37-.91-.83-1.79-1.25-2.68a1.32,1.32,0,0,0-.29-.42,1.17,1.17,0,0,1,.45-.21c.25-.12.33.07.4.23.42.93.87,1.84,1.29,2.77.13.27.27.54.39.82s-.07.24-.09.36A2.62,2.62,0,0,1,49.07,10.41Z"/><path class="cls-1" d="M28.11,36.84c0,.15.1.2.23.24,1.36.48,2.71,1,4.07,1.45a3,3,0,0,0,.85.3A.51.51,0,0,1,33,39c-.44.3-.85.12-1.29,0-1.07-.4-2.15-.79-3.23-1.16L28,37.59c-.13-.07-.24-.14-.16-.32S28,37,28.11,36.84Z"/><path class="cls-1" d="M43.34,10.92c.32.05.36.34.46.56.53,1.11,1.05,2.22,1.57,3.34.13.28.34.54.18.89a.38.38,0,0,1-.14.21,1.92,1.92,0,0,0-.54-.88,8,8,0,0,1-1.38-2.47c-.08-.3-.17-.6-.23-.9S43.17,11.15,43.34,10.92Z"/><path class="cls-1" d="M43.57,12.6a8.94,8.94,0,0,0,1.15,2.1,5.1,5.1,0,0,0,.51.62.49.49,0,0,1,.18.6c-.42.67-.86,1.32-1.32,2a.06.06,0,0,1-.09,0c-.09-.16,0-.26.09-.38s.19-.27.3-.4.16-.24.23-.36l.29-.4a.41.41,0,0,0,0-.5C43.74,13.91,42.63,12,41.44,10a.57.57,0,0,1,.07-.29l.08-.08c.27,0,.32.23.43.39.49.79.94,1.61,1.44,2.4A.49.49,0,0,0,43.57,12.6Z"/><path class="cls-1" d="M49.57,9.45a22.25,22.25,0,0,1-1-2.08c-.27-.53-.51-1.08-.75-1.62-.06-.12-.14-.2-.28-.18a3.11,3.11,0,0,1,.64-.3c.27,0,.3.22.38.38.48,1.07,1,2.11,1.49,3.18A.19.19,0,0,1,50,9C49.82,9.15,49.82,9.42,49.57,9.45Z"/><path class="cls-1" d="M47.66,28.57c-.3-.15-.55,0-.79.15l-4.54,2.15L37.71,33a.22.22,0,0,1-.05-.26.15.15,0,0,1,.06-.09c1.18-.64,2.42-1.16,3.63-1.74.95-.46,1.91-.9,2.87-1.35L47,28.27c.11-.05.21-.13.34-.07l.22.22Z"/><path class="cls-1" d="M30.77,40a4.66,4.66,0,0,1-.9.43c-.75-.23-1.47-.53-2.2-.78-.25-.09-.49-.16-.73-.27s-.33-.12-.3-.35a3.37,3.37,0,0,1,.44-.67.84.84,0,0,0,.51.39c.88.32,1.77.61,2.65,1A1.11,1.11,0,0,1,30.77,40Z"/><path class="cls-1" d="M35.07,34.06a4.41,4.41,0,0,1-1.28-.39c-.79-.26-1.56-.56-2.33-.85-.19-.07-.43-.08-.42-.38a1.42,1.42,0,0,1,.29-.43,15.58,15.58,0,0,0,2,.77c.45.18.91.35,1.37.49a.54.54,0,0,1,.42.4.27.27,0,0,1,0,.12A.3.3,0,0,1,35.07,34.06Z"/><path class="cls-1" d="M34.52,25c.35.16.61-.1.88-.22,1.41-.64,2.8-1.32,4.19-2L43.42,21a5.06,5.06,0,0,0,.44-.26c.16.23,0,.31-.18.38l-3.19,1.52-1.56.72L35,25.2a.69.69,0,0,1-.35.07Z"/><path class="cls-1" d="M30.77,40l-2.14-.78-1.33-.48c-.19-.07-.29-.17-.22-.38s.08-.24.22-.28l3.64,1.31c.22.08.42.19.66.05a.19.19,0,0,1,.26,0A6.06,6.06,0,0,1,30.77,40Z"/><path class="cls-1" d="M50,8.87a10.65,10.65,0,0,1-.8-1.58c-.3-.61-.58-1.23-.87-1.84a.32.32,0,0,0-.18-.18,1.16,1.16,0,0,1,.45-.21c.25-.12.33.07.41.23.28.58.56,1.17.83,1.77.18.4.4.77.55,1.18,0,.14-.07.23-.14.33S50.15,8.82,50,8.87Z"/><path class="cls-1" d="M26.64,39a.75.75,0,0,0,.47.32c.79.27,1.57.55,2.36.84a1,1,0,0,1,.4.24.7.7,0,0,1-.34.15c-.51.36-1,.12-1.47-.07s-.94-.34-1.4-.51c-.19-.07-.42-.12-.39-.4A1.81,1.81,0,0,1,26.64,39Z"/><path class="cls-1" d="M50.38,8.28A26.32,26.32,0,0,1,49.2,5.9l-.31-.66a.24.24,0,0,0-.28-.18,2.59,2.59,0,0,1,.65-.31c.17,0,.23.1.29.22.43.89.88,1.77,1.25,2.7a.39.39,0,0,1-.1.25C50.58,8,50.58,8.25,50.38,8.28Z"/><path class="cls-1" d="M50.74,7.7,49.51,5.09c-.06-.13-.1-.28-.25-.34a2.53,2.53,0,0,1,.6-.28c.16,0,.21.08.26.18.4.78.77,1.57,1.12,2.36a.37.37,0,0,1-.1.25C51,7.39,51,7.66,50.74,7.7Z"/><path class="cls-1" d="M26.27,39.61a.66.66,0,0,0,.42.32c.72.25,1.44.51,2.16.79a.34.34,0,0,0,.3,0,.52.52,0,0,1,.38-.1,6.4,6.4,0,0,1-1.09.52,1,1,0,0,1-.94-.06c-.44-.19-.92-.3-1.35-.51-.17-.07-.36-.15-.24-.4A2.36,2.36,0,0,1,26.27,39.61Z"/><path class="cls-1" d="M44.44,22,43,22.64l-4.52,2.14-3,1.42a.38.38,0,0,1-.31,0L35,26.09a2.23,2.23,0,0,0,.75-.26l5.65-2.68,2.93-1.39Z"/><path class="cls-1" d="M31.86,39.49c-.7.34-1.27-.15-1.87-.33-.79-.23-1.56-.56-2.34-.84-.13,0-.28-.08-.35-.23a.55.55,0,0,1,.22-.37c1.41.51,2.83,1,4.22,1.53a.48.48,0,0,1,.28.17C32,39.48,31.93,39.49,31.86,39.49Z"/><path class="cls-1" d="M35.07,33.7a.63.63,0,0,0-.42-.36l-3.06-1.08c-.13,0-.26-.08-.26-.25a1.35,1.35,0,0,1,.29-.44,27.17,27.17,0,0,0,2.72,1,2.08,2.08,0,0,1,.57.24A.85.85,0,0,1,35.07,33.7Z"/><path class="cls-1" d="M25.91,40.14c0,.2.12.26.25.31.61.23,1.21.45,1.81.69.17.06.31-.09.47,0a5,5,0,0,1-.91.43.94.94,0,0,1-.93,0c-.3-.13-.62-.22-.92-.36s-.32-.15-.21-.38A4.21,4.21,0,0,1,25.91,40.14Z"/><path class="cls-1" d="M34.85,32.89l-3-1.07c-.13-.05-.25-.08-.26-.25a1.37,1.37,0,0,1,.3-.45,18.73,18.73,0,0,0,1.93.74,2.88,2.88,0,0,1,.82.37,1.28,1.28,0,0,1,.23.45A.2.2,0,0,1,34.85,32.89Z"/><path class="cls-1" d="M51.18,7c-.36-.76-.73-1.51-1.09-2.26-.06-.12-.09-.26-.23-.31a1.17,1.17,0,0,1,.49-.23c.23-.08.29.09.37.25.31.63.61,1.28.92,1.92a.22.22,0,0,1-.07.2C51.43,6.74,51.43,7,51.18,7Z"/><path class="cls-1" d="M32,39.42l-1.61-.55L27.91,38c-.15-.05-.31-.08-.39-.24h0a.34.34,0,0,1,.46-.14c1.35.51,2.71,1,4.06,1.47.13.05.26.1.17.28Z"/><path class="cls-1" d="M51.62,6.45c-.21-.14-.25-.38-.35-.58-.24-.49-.46-1-.69-1.48a.25.25,0,0,0-.23-.15A2.09,2.09,0,0,1,51,4c.21,0,.22.15.28.27.28.52.5,1.08.78,1.6a.34.34,0,0,1,0,.1C51.89,6.1,51.83,6.33,51.62,6.45Z"/><path class="cls-1" d="M34.63,32.31a21.47,21.47,0,0,0-2.06-.81c-.23-.1-.54-.07-.65-.38a1.26,1.26,0,0,1,.29-.43,16.15,16.15,0,0,0,2,.74C34.44,31.68,34.7,31.92,34.63,32.31Z"/><path class="cls-1" d="M52,5.86a10.37,10.37,0,0,1-.87-1.69c0-.08-.07-.18-.17-.22a1.09,1.09,0,0,1,.45-.21c.23-.11.33,0,.42.21.22.4.41.82.63,1.22a.17.17,0,0,1,0,.1C52.3,5.47,52.24,5.74,52,5.86Z"/><path class="cls-1" d="M25.47,40.8c0,.24.17.28.32.34.4.16.81.29,1.21.47.21.1.34-.17.53-.07a2.2,2.2,0,0,1-.64.3c-.06,0-.13,0-.17,0-.51.41-1,.13-1.46-.08a.28.28,0,0,1-.16-.44A2.15,2.15,0,0,1,25.47,40.8Z"/><path class="cls-1" d="M52.43,5.2A4.89,4.89,0,0,1,51.77,4c-.09-.15-.15-.31-.37-.28a2.5,2.5,0,0,1,.64-.3.18.18,0,0,1,.25.07,5.86,5.86,0,0,1,.54,1.13c0,.05,0,.09,0,.14h0C52.65,4.89,52.66,5.15,52.43,5.2Z"/><path class="cls-1" d="M52.81,4.78l-.58-1.2A.2.2,0,0,0,52,3.44a2.08,2.08,0,0,1,.6-.29.23.23,0,0,1,.21,0,.84.84,0,0,1,.38,1C53.08,4.33,53,4.61,52.81,4.78Z"/><path class="cls-1" d="M25.1,41.37a.32.32,0,0,0,.28.39.61.61,0,0,1,.17.07c.37.17.74.34,1.13,0,0,0,.14,0,.21,0a7.35,7.35,0,0,1-1.24.58,2.73,2.73,0,0,1-.56.15c-.36,0-.45-.08-.4-.45a1,1,0,0,1,0-.17A1.85,1.85,0,0,1,25.1,41.37Z"/><path class="cls-1" d="M34.19,31.5c-.53-.11-1-.35-1.55-.51a.61.61,0,0,1-.43-.3l.19-.3c.16-.09.3,0,.44,0a4.88,4.88,0,0,0,.82.26A.88.88,0,0,1,34.19,31.5Z"/><path class="cls-1" d="M32.21,39.33c0-.15-.11-.19-.23-.23l-4-1.42c-.18-.07-.35-.11-.5,0a1.34,1.34,0,0,1,.29-.45c0,.17.13.21.26.26,1.13.4,2.24.81,3.36,1.22l.18.06c.43.17.86.42,1.35.17A2.86,2.86,0,0,1,32.21,39.33Z"/><path class="cls-1" d="M33.82,38.61l-.07-.07a1.46,1.46,0,0,0,.37-.52.82.82,0,0,0,.29-.51c.15,0,.12-.22.22-.3a.55.55,0,0,1,.44.59c-.06.19-.32.19-.36.39A4.83,4.83,0,0,1,33.82,38.61Z"/><path class="cls-1" d="M53.23,4.11a.9.9,0,0,0-.59-1,1.08,1.08,0,0,1,.75-.21c.27,0,.4.18.3.45A1.54,1.54,0,0,1,53.23,4.11Z"/><path class="cls-1" d="M33.68,30.77c-.46,0-.84-.3-1.28-.38l.45-.66a.11.11,0,0,1,.14,0c.23.22.4.49.62.72C33.69,30.55,33.77,30.64,33.68,30.77Z"/><path class="cls-1" d="M35.08,26.36c.15,0,.11.18.21.24l.2.51a.9.9,0,0,0-.91.58c-.06.13-.15.26-.33.24s-.11-.1-.07-.19Z"/><path class="cls-1" d="M44,17.87h.09a9.94,9.94,0,0,1-.77,1.18h0c-.06-.2-.28-.3-.29-.52v-.08a.14.14,0,0,1,.16-.05c.31.08.47-.08.6-.33C43.8,18,43.84,17.84,44,17.87Z"/><path class="cls-1" d="M34.18,27.74l.08.17c.09.12,0,.21,0,.29-.2.27-.37.56-.58.81a.15.15,0,0,1-.11,0c-.07,0-.08-.11-.1-.18A8.31,8.31,0,0,1,34.18,27.74Z"/><path class="cls-1" d="M33.43,28.85a.16.16,0,0,1,.1.16c0,.18-.1.27-.17.41s-.15.39-.41.4l-.1-.09A6.37,6.37,0,0,1,33.43,28.85Z"/><path class="cls-1" d="M24.73,42c0,.64,0,.65.7.49a1.5,1.5,0,0,1,.22,0,.86.86,0,0,1-.5.21c-.19,0-.42.06-.53-.14A.48.48,0,0,1,24.73,42Z"/><path class="cls-1" d="M47.67,28.94h.13a1.49,1.49,0,0,1,.16.65l-.15-.14a2.17,2.17,0,0,1-.19-.33.26.26,0,0,1,0-.15Z"/><path class="cls-1" d="M49.57,9.45c.18-.1.21-.32.37-.44a.08.08,0,0,1,0,.1,2.8,2.8,0,0,1-.44.64C49.39,9.63,49.62,9.57,49.57,9.45Z"/><path class="cls-1" d="M52,5.86l.44-.58s0,0,0,.06,0,0,0,0A2.62,2.62,0,0,1,52,6s0-.06,0-.09Z"/><path class="cls-1" d="M51.18,7c.18-.1.21-.32.37-.44s0,.05,0,.09a3.3,3.3,0,0,1-.44.66s0-.06,0-.09Z"/><path class="cls-1" d="M51.11,7.26v.09a2.92,2.92,0,0,1-.44.66s0-.06,0-.1l.07-.21C50.92,7.6,51,7.38,51.11,7.26Z"/><path class="cls-1" d="M47.15,13.19v.09a2.62,2.62,0,0,1-.44.66.22.22,0,0,1,0-.08.71.71,0,0,1,.13-.34C46.92,13.41,46.93,13.19,47.15,13.19Z"/><path class="cls-1" d="M50.67,7.91V8a2.92,2.92,0,0,1-.44.66s-.05-.06,0-.1l.15-.29Z"/><path class="cls-1" d="M51.56,6.69V6.6l.07-.15L52,5.94V6A2.88,2.88,0,0,1,51.56,6.69Z"/><path class="cls-1" d="M47.67,31.21h.09a1.1,1.1,0,0,1-.29.59c-.1,0,0-.1,0-.15S47.47,31.29,47.67,31.21Z"/><path class="cls-1" d="M46.05,14.8v-.07c.08-.19.11-.42.38-.45a.11.11,0,0,1,0,.1,1.79,1.79,0,0,1-.38.56A.1.1,0,0,1,46.05,14.8Z"/><path class="cls-1" d="M52.43,5.37V5.2c.16-.11.17-.35.38-.43A1.8,1.8,0,0,1,52.43,5.37Z"/><path class="cls-1" d="M46.05,14.8v.14a1.21,1.21,0,0,1-.29.44A.92.92,0,0,1,46.05,14.8Z"/><path class="cls-1" d="M50.23,8.57v.1a1.46,1.46,0,0,1-.29.44V9L50,8.87Z"/><path class="cls-1" d="M35,25.71V26a2.1,2.1,0,0,1-.27-.54C34.9,25.44,34.87,25.65,35,25.71Z"/><path class="cls-1" d="M46.43,14.38v-.09a.17.17,0,0,1,0-.1c.08-.14.11-.33.32-.34v.09A1.21,1.21,0,0,1,46.43,14.38Z"/><path class="cls-1" d="M47.89,30.33H48a.75.75,0,0,1-.07.44.14.14,0,0,1-.09-.15C47.86,30.53,47.77,30.4,47.89,30.33Z"/><path class="cls-1" d="M46.22,25.49h-.09c0-.1-.19-.17-.05-.3A.69.69,0,0,1,46.22,25.49Z"/><path class="cls-1" d="M44,17.87c0,.05-.1.08-.12.13-.29.57-.29.57-.89.46l-.15-.22a3.82,3.82,0,0,0-.52-1.1c0-.32-.24-.54-.37-.8a3.45,3.45,0,0,0-.36-.81,1.78,1.78,0,0,0-.22-.66,2.71,2.71,0,0,0-.22-.88c0-.14.05-.31-.07-.44s0-.26,0-.39,0-.51,0-.79c.24.08.31.29.41.45.75,1.28,1.52,2.55,2.25,3.83.16.28.42.51.44.86Z"/><path class="cls-1" d="M33.6,29c.14-.42.52-.68.66-1.1a1,1,0,0,0,.4-.5.56.56,0,0,1,.83-.3l.08.07a.46.46,0,0,1,.21.44,1.79,1.79,0,0,0,.31.67,3.42,3.42,0,0,0,.37.8,3.84,3.84,0,0,0,.43.89,1.09,1.09,0,0,1,.3.72c.07.25.14.49.22.74s.1.62.16.94a.3.3,0,0,1,.08.24,3.24,3.24,0,0,0,0,1.12.35.35,0,0,1-.1.31c-.09.11-.06.24-.07.37l-.06.09c-.14.34-.3.15-.4,0-.25-.38-.5-.75-.74-1.14-.83-1.32-1.69-2.64-2.52-4C33.68,29.28,33.56,29.17,33.6,29Z"/><path class="cls-1" d="M37.19,30.7a3,3,0,0,1-.3-.72c.17-.25.47-.28.72-.4,1.1-.53,2.22-1,3.33-1.57l5.19-2.44c.17.17.19.41.3.61s-.1.2-.19.24l-3,1.45c-.91.42-1.83.83-2.74,1.26Z"/><path class="cls-1" d="M37.57,32.6v-.22A5.23,5.23,0,0,1,39,31.59l3-1.46,1.62-.74,3.14-1.46c.14-.06.3-.21.41.05-.11.23-.34.28-.53.37-1,.45-2,.92-3,1.39-1.82.87-3.65,1.71-5.46,2.58a1.19,1.19,0,0,0-.46.3,1,1,0,0,1-.09.13h0a.08.08,0,0,1-.08,0C37.59,32.72,37.61,32.65,37.57,32.6Z"/><path class="cls-1" d="M37.71,32.6A2.53,2.53,0,0,1,38.79,32c.89-.44,1.81-.84,2.71-1.26L47.23,28a.23.23,0,0,1,.14.15c-1.16.59-2.34,1.12-3.52,1.68L38.4,32.37C38.18,32.47,38,32.67,37.71,32.6Z"/><path class="cls-1" d="M37.71,32.6a13,13,0,0,0,1.83-.82c1.51-.69,3-1.44,4.52-2.13,1.1-.51,2.18-1.08,3.31-1.52v.07l-8.24,3.9-1.42.65Z"/><path class="cls-1" d="M35.78,27.62a1.19,1.19,0,0,1-.21-.44,20.77,20.77,0,0,0,2.15-1c1.9-.87,3.78-1.79,5.67-2.68l1.49-.67c.21.42.21.46-.22.66l-7.78,3.63A4.45,4.45,0,0,1,35.78,27.62Z"/><path class="cls-1" d="M43.34,10.92v.8c-.29-.06-.38-.32-.51-.53-.37-.6-.69-1.23-1.1-1.81L42,9H42c.37.31.48.8.76,1.17s.22.52.48.66Z"/><path class="cls-1" d="M44.15,17.51,41.7,13.42l-.63-1.05v.75s0,0-.07,0h0V11.72c.1-.07.06-.19.08-.29.25.08.2.35.31.53,1,1.66,2,3.36,3,5a.27.27,0,0,1,0,.14C44.34,17.26,44.3,17.43,44.15,17.51Z"/><path class="cls-1" d="M44.44,17.14a11.19,11.19,0,0,1-1.06-1.69C42.64,14.27,42,13,41.21,11.87c-.1-.15,0-.33-.13-.44v-.29c.05,0,0-.15.1-.17a2.21,2.21,0,0,1,.58.78c.91,1.57,1.85,3.13,2.76,4.7a.65.65,0,0,1,.14.33A.63.63,0,0,1,44.44,17.14Z"/><path class="cls-1" d="M41.15,11a.2.2,0,0,1-.07.15c0-.33-.14-.34-.38-.22l-2.57,1.22-7,3.32-.79.37a.31.31,0,0,1,.22-.34l4.34-2,2.77-1.31,3.2-1.53a.58.58,0,0,1,.31-.08A.31.31,0,0,1,41.15,11Z"/><path class="cls-1" d="M41.74,9.38c.23,0,.27.25.37.4a16.36,16.36,0,0,0,1.24,1.94,4.36,4.36,0,0,1,.22.88c-.37-.16-.45-.54-.64-.84-.38-.6-.74-1.21-1.1-1.83a.67.67,0,0,0-.24-.26Z"/><path class="cls-1" d="M41,13.11h.07v.43C40.94,13.43,41,13.26,41,13.11Z"/><path class="cls-1" d="M41.44,10c.26.09.33.35.45.55,1,1.77,2.09,3.55,3.15,5.32.14.23,0,.35-.08.5-.2-.05-.27-.24-.36-.39-1-1.68-2-3.35-3-5-.12-.2-.29-.33-.41-.51a.14.14,0,0,1,.06-.15Z"/><path class="cls-1" d="M35.14,35.09h.07a.64.64,0,0,1,.44.36,8.69,8.69,0,0,0,.75,1.08.11.11,0,0,1,0,.1l-.37.44-.14.07c-.2.11-.26-.06-.34-.17a7.38,7.38,0,0,0-.54-.71v-.14A2.26,2.26,0,0,0,35.14,35.09Z"/><path class="cls-1" d="M35,36.26c.28,0,.34.31.49.49s.15.37.39.39a2.36,2.36,0,0,1-.81.66,1.69,1.69,0,0,0-.44-.59l.08-.28a1.06,1.06,0,0,0,.21-.59Z"/><path class="cls-1" d="M46.42,14.21v.08c-.15.12-.19.34-.36.44-.71-1.5-1.4-3-2.11-4.49-.11-.24-.15-.58-.53-.57a3.35,3.35,0,0,1,.36-1c.27,0,.35.26.44.45.61,1.3,1.23,2.61,1.84,3.92A2.37,2.37,0,0,1,46.42,14.21Z"/><path class="cls-1" d="M43.35,10.33c0-.15-.06-.31.07-.44C43.4,10,43.48,10.2,43.35,10.33Z"/><path class="cls-1" d="M47.15,13.19l-.29.36c-.19,0-.21-.16-.28-.28-.4-.71-.63-1.5-1-2.23-.45-.91-.86-1.85-1.32-2.76-.06-.11-.16-.22-.12-.37a2.37,2.37,0,0,1,.44-.73.71.71,0,0,0,.1.35c.5,1,1,2.07,1.48,3.13.26.65.57,1.28.84,1.93.06.13.15.25.22.38Z"/><path class="cls-1" d="M44.15,7.91c.57.95,1,2,1.47,3a24.93,24.93,0,0,0,1.24,2.67l-.15.3-.29.36a21.11,21.11,0,0,0-1.07-2.5c-.39-.85-.79-1.69-1.19-2.53a1.66,1.66,0,0,0-.38-.53A2.24,2.24,0,0,1,44.15,7.91Z"/><path class="cls-1" d="M36.39,36.63v-.08a.62.62,0,0,1,.37-.46,1.3,1.3,0,0,0,.69-.21c1.8-.87,3.61-1.7,5.41-2.55,1.47-.69,2.93-1.4,4.4-2.06.13-.06.25-.17.41-.06-.09.14-.08.33-.22.44-.08-.11-.15,0-.23,0l-3.8,1.79-6.74,3.19C36.59,36.67,36.49,36.76,36.39,36.63Z"/><path class="cls-1" d="M36.75,36.12c-.13.14-.19.33-.36.43-.29-.06-.36-.35-.48-.55a4.09,4.09,0,0,0-.7-.91,2.6,2.6,0,0,0-.07-.88.26.26,0,0,1,0-.21c.26-.17.38,0,.49.2.4.6.77,1.21,1.16,1.81A.11.11,0,0,1,36.75,36.12Z"/><path class="cls-1" d="M35.15,34v.22a.15.15,0,0,1-.07-.15v-.29C35.23,33.8,35.2,33.89,35.15,34Z"/><path class="cls-1" d="M36.75,36.12V36c-.07-.21.06-.23.22-.23s.17,0,.25,0l2.38-1.12,6.9-3.26c.31-.15.62-.3.93-.43.09,0,.16-.21.27-.1s0,.21,0,.31a18.75,18.75,0,0,0-2,.89c-1.52.7-3,1.44-4.55,2.16L37,36.16C36.94,36.2,36.81,36.36,36.75,36.12Z"/><path class="cls-1" d="M47.89,30.33c0,.1,0,.21-.08.29-.14-.07-.25,0-.37.08L42.9,32.86l-5.38,2.5c-.13.06-.23.23-.41.16a.23.23,0,0,1,0-.2.39.39,0,0,1,.11-.17l.1,0c1-.44,1.94-.9,2.91-1.36l7.32-3.44c.12-.05.24-.15.38,0Z"/><path class="cls-1" d="M37.13,35.31l0,.21a.47.47,0,0,0-.14.29c-.09.07-.21.09-.22.23a8.36,8.36,0,0,1-.9-1.3c-.13-.18-.25-.38-.37-.58a.34.34,0,0,0-.33-.17c0-.08,0-.17-.08-.22V33.7a1.75,1.75,0,0,0-.22-.81v-.22c.22-.11.31.07.4.21.57.88,1.15,1.77,1.69,2.64C37,35.42,36.94,35.29,37.13,35.31Z"/><path class="cls-1" d="M47.89,30.26a21.36,21.36,0,0,0-2.13,1c-1.47.67-2.92,1.38-4.38,2.07l-3.93,1.85c-.06,0-.12.1-.19,0a.33.33,0,0,1,.11-.45,3.44,3.44,0,0,0,1.11-.44c2.86-1.34,5.72-2.7,8.58-4l.49-.25c.11-.06.22-.12.34,0Z"/><path class="cls-1" d="M47.89,30a6,6,0,0,0-1.16.52c-1.52.69-3,1.42-4.52,2.14l-4.56,2.13c-.08,0-.2.19-.24,0a.24.24,0,0,1,0-.28h.06c0,.08,0,.12.14.07l1.91-.9,6.77-3.2,1.29-.61C47.78,29.69,47.93,29.68,47.89,30Z"/><path class="cls-1" d="M47.67,29.08c0,.13.23.19.14.37a19.36,19.36,0,0,0-2,.91c-1.89.87-3.76,1.78-5.64,2.67L37.7,34.19c-.1.05-.13.06-.14-.06s0-.21.07-.31c1.42-.68,2.86-1.35,4.29-2,.92-.44,1.85-.88,2.78-1.3s1.62-.78,2.44-1.15a1.14,1.14,0,0,0,.38-.23A.16.16,0,0,1,47.67,29.08Z"/><path class="cls-1" d="M37.63,33.84c0,.1,0,.22-.07.29v-.08l0-.28,0,0,0,0S37.66,33.82,37.63,33.84Z"/><path class="cls-1" d="M37.71,33.55c0-.17.07-.26.22-.33L42.58,31l2.81-1.33,1.91-.92c.18-.09.33-.12.37.15h0a1.39,1.39,0,0,1-.43.28l-6.88,3.23c-.7.33-1.41.65-2.11,1C38.08,33.53,37.91,33.66,37.71,33.55Z"/><path class="cls-1" d="M37.71,33.55a9.52,9.52,0,0,0,1.73-.77c1.89-.86,3.76-1.77,5.64-2.66l2.59-1.18v.14l-.08.08c-1.18.58-2.37,1.12-3.56,1.68-2,.93-3.94,1.87-5.92,2.78a.81.81,0,0,1-.48.15h0a.17.17,0,0,1,0-.22Z"/><path class="cls-1" d="M37.64,33.55v.22h-.06V32.6l.07.14a.82.82,0,0,1,0,.44Z"/><path class="cls-1" d="M37.64,33.18v-.44h.07V33C37.7,33.1,37.7,33.15,37.64,33.18Z"/><path class="cls-1" d="M41.23,10.48c.46.14.54.6.74.94,1,1.65,2,3.32,3,5-.1.12-.15.29-.3.37a9.31,9.31,0,0,1-.89-1.44c-.77-1.28-1.51-2.57-2.27-3.85a5.62,5.62,0,0,0-.35-.5v-.44Z"/><path class="cls-1" d="M37.13,35.31l-.24.29c-.33-.53-.66-1-1-1.54s-.49-.79-.75-1.17a.38.38,0,0,0-.31-.22c-.14-.08-.11-.27-.22-.36a2,2,0,0,0-.44-.81,1.7,1.7,0,0,0-.51-.73c-.17-.38-.52-.61-.73-.95.17-.1.21-.32.36-.44a6.19,6.19,0,0,1,1,1.4q1.3,2,2.58,4a1.33,1.33,0,0,0,.33.34Z"/><path class="cls-1" d="M37.2,35.16c-.21.1-.25-.08-.33-.19L34,30.54l-.73-1.16.22-.37h.07L37,34.31c.08.11.15.55.43.12v.28a.8.8,0,0,0-.15.44Z"/><path class="cls-1" d="M37.63,33.77l7-3.23,2.66-1.27a1.5,1.5,0,0,1,.34-.11c-.1.18-.31.22-.48.3L44,30.91l-6.1,2.87a.55.55,0,0,1-.28.06Z"/></svg>