<svg id="Layer_1" data-name="Layer 1" xmlns="http://www.w3.org/2000/svg" viewBox="0 0 79.45 45.71"><defs><style>.cls-1{fill:#020202;}</style></defs><path class="cls-1" d="M53.37,5.57a1,1,0,0,0-.69.19,1.88,1.88,0,0,0-.55.27,2.36,2.36,0,0,0-.58.27,1,1,0,0,0-.41.2,1.6,1.6,0,0,0-.56.26h0a1.16,1.16,0,0,0-.45.21,2.12,2.12,0,0,0-.55.26A2.18,2.18,0,0,0,49,7.5a1,1,0,0,0-.41.2A2.43,2.43,0,0,0,48,8a1,1,0,0,0-.41.2,1.88,1.88,0,0,0-.59.28,1,1,0,0,0-.41.19A1.74,1.74,0,0,0,46,8.9h0a1.19,1.19,0,0,0-.44.21.15.15,0,0,0-.14.07,12.17,12.17,0,0,0-1.27.59h-.07l-10.7,5.05a2.13,2.13,0,0,0-1,1,1.25,1.25,0,0,0-.26.81.94.94,0,0,0,0,.47.78.78,0,0,0,.12.41,1,1,0,0,0,.2.46.93.93,0,0,0,.19.4l.16.4.18.34a1.92,1.92,0,0,0,.26.54c.11.24.22.49.34.73l.35.74a2.57,2.57,0,0,0,.32.67,2.34,2.34,0,0,0,.28.6c.14.31.29.63.44.94l.06.13a4.17,4.17,0,0,0,.35.74l.3.66.39.81,0,.07.12.26h0l.06.13a1.74,1.74,0,0,0,.25.49h0a.12.12,0,0,0,0,.13h0l.06.13h0l0,.11-.82,1.27a6.93,6.93,0,0,0-.69,1,5.65,5.65,0,0,0-.53.81l-.41.6-.17.27a1.09,1.09,0,0,0-.27.4,1.56,1.56,0,0,0-.27.4,1.56,1.56,0,0,0-.27.4,1.31,1.31,0,0,0-.26.4,3.36,3.36,0,0,0-.41.6,1.25,1.25,0,0,0-.26.41,2.77,2.77,0,0,0-.41.6,3,3,0,0,0-.4.6,1.31,1.31,0,0,0-.26.4,2.26,2.26,0,0,0-.35.52,2,2,0,0,0-.32.49,1.34,1.34,0,0,0-.27.4c-.14.1-.18.27-.27.4h0a1.13,1.13,0,0,0-.27.41h0a.48.48,0,0,0-.2.33c-.13,0-.12.18-.2.26h0a2.67,2.67,0,0,0-.4.61,1.61,1.61,0,0,0-.34.52,2,2,0,0,0-.33.49,3,3,0,0,0-.4.6,1.94,1.94,0,0,0-.34.52,1.66,1.66,0,0,0-.34.53.44.44,0,0,0-.1.49c.1.19.31.14.49.13a.79.79,0,0,0,.45-.19h0a6.48,6.48,0,0,0,1.13-.53h0a1.76,1.76,0,0,0,.59-.27,4.23,4.23,0,0,0,.83-.4h0a4.79,4.79,0,0,0,1-.47h0a.62.62,0,0,0,.31-.14,4.47,4.47,0,0,0,.83-.39,6.45,6.45,0,0,0,1-.48c.06,0,.11,0,.15-.06l.17-.08a3.26,3.26,0,0,0,.68-.32h0a.43.43,0,0,0,.28-.13h0l.51-.2a.09.09,0,0,0-.06-.06h0l.06.06a6,6,0,0,0,.81-.38h0l.16,0,10.84-5.15a.67.67,0,0,0,.37-.31A.53.53,0,0,0,48,32a1.07,1.07,0,0,0,.27-.54.66.66,0,0,0,.12-.41.61.61,0,0,0,.07-.4,1.27,1.27,0,0,0,0-.67h0a1.39,1.39,0,0,0-.14-.6.73.73,0,0,0-.14-.34l-.06-.13h0a18.7,18.7,0,0,0-.85-1.81,3.82,3.82,0,0,0-.4-.87.53.53,0,0,0-.13-.27h0a7.35,7.35,0,0,0-.49-1.07,1.89,1.89,0,0,0-.25-.54,6.08,6.08,0,0,0-.47-1,4,4,0,0,0-.54-1.09,3.24,3.24,0,0,0-.41-1c-.08-.32-.34-.58-.36-.93,0,0,0,0,0,0h0a11,11,0,0,0,.71-1.07q.63-.89,1.2-1.8a.35.35,0,0,0,.13-.19.85.85,0,0,0,.19-.3,1.09,1.09,0,0,0,.27-.4A1.75,1.75,0,0,0,47,16a1.18,1.18,0,0,0,.27-.4,2.67,2.67,0,0,0,.4-.61,10.63,10.63,0,0,0,.81-1.21,1.22,1.22,0,0,0,.27-.41,2.42,2.42,0,0,0,.4-.6,1.09,1.09,0,0,0,.27-.4,3,3,0,0,0,.4-.6,2.92,2.92,0,0,0,.4-.59,1.31,1.31,0,0,0,.26-.4,2.72,2.72,0,0,0,.41-.61v0h0s0,0,0,0a2.73,2.73,0,0,0,.4-.6h0a3,3,0,0,0,.4-.6,3.06,3.06,0,0,0,.4-.61,2.73,2.73,0,0,0,.4-.6,1.6,1.6,0,0,0,.34-.54c.21-.16.25-.41.39-.61A1.53,1.53,0,0,0,53.64,6C53.73,5.74,53.61,5.6,53.37,5.57ZM38.89,34Zm0-1.53Zm4.82-12.92Zm-1.34-3.11v0s0,0,0,0ZM42,14.64v0h0s0,0,0,0ZM42.17,13v0h0ZM42,14.87Zm5,1.07Z"/></svg>