<svg id="Layer_1" data-name="Layer 1" xmlns="http://www.w3.org/2000/svg" xmlns:xlink="http://www.w3.org/1999/xlink" width="80.58" height="24.67" viewBox="0 0 80.58 24.67">
  <defs>
    <style>
      .cls-1 {
        fill: none;
      }

      .cls-2 {
        clip-path: url(#clip-path);
      }

      .cls-3 {
        clip-path: url(#clip-path-2);
      }

      .cls-4 {
        fill: url(#linear-gradient);
      }

      .cls-5 {
        clip-path: url(#clip-path-3);
      }

      .cls-6 {
        clip-path: url(#clip-path-4);
      }

      .cls-7 {
        fill: url(#linear-gradient-2);
      }

      .cls-8 {
        clip-path: url(#clip-path-5);
      }

      .cls-9 {
        clip-path: url(#clip-path-6);
      }

      .cls-10 {
        fill: url(#linear-gradient-3);
      }

      .cls-11 {
        clip-path: url(#clip-path-7);
      }

      .cls-12 {
        clip-path: url(#clip-path-8);
      }

      .cls-13 {
        fill: url(#linear-gradient-4);
      }

      .cls-14 {
        clip-path: url(#clip-path-9);
      }

      .cls-15 {
        clip-path: url(#clip-path-10);
      }

      .cls-16 {
        fill: url(#linear-gradient-5);
      }
    </style>
    <clipPath id="clip-path">
      <rect id="SVGID" class="cls-1" x="3.05" y="14.5" width="8.31" height="9.46"/>
    </clipPath>
    <clipPath id="clip-path-2">
      <path id="SVGID-2" data-name="SVGID" class="cls-1" d="M9,21.32,3.5,23.93s-.7.18-.31-.43,6-8.95,6-8.95l2.18,4.73Z"/>
    </clipPath>
    <linearGradient id="linear-gradient" x1="-414.02" y1="-2503.72" x2="-409.37" y2="-2508.37" gradientTransform="matrix(1.08, 2.29, 2.29, -1.08, 6189.35, -1742.23)" gradientUnits="userSpaceOnUse">
      <stop offset="0" stop-color="#1b489c"/>
      <stop offset="0.13" stop-color="#1b489c"/>
      <stop offset="0.19" stop-color="#1b489c"/>
      <stop offset="0.2" stop-color="#1b489c"/>
      <stop offset="0.2" stop-color="#1b499d"/>
      <stop offset="0.2" stop-color="#1b499d"/>
      <stop offset="0.21" stop-color="#1c4a9e"/>
      <stop offset="0.21" stop-color="#1c4b9e"/>
      <stop offset="0.21" stop-color="#1c4c9f"/>
      <stop offset="0.22" stop-color="#1c4c9f"/>
      <stop offset="0.22" stop-color="#1c4da0"/>
      <stop offset="0.23" stop-color="#1c4ea0"/>
      <stop offset="0.23" stop-color="#1d4fa1"/>
      <stop offset="0.23" stop-color="#1d4fa1"/>
      <stop offset="0.24" stop-color="#1d50a2"/>
      <stop offset="0.24" stop-color="#1d51a2"/>
      <stop offset="0.25" stop-color="#1d52a3"/>
      <stop offset="0.25" stop-color="#1d52a3"/>
      <stop offset="0.25" stop-color="#1d53a4"/>
      <stop offset="0.26" stop-color="#1e54a4"/>
      <stop offset="0.26" stop-color="#1e55a5"/>
      <stop offset="0.27" stop-color="#1e55a5"/>
      <stop offset="0.27" stop-color="#1e56a6"/>
      <stop offset="0.27" stop-color="#1e57a6"/>
      <stop offset="0.28" stop-color="#1e58a7"/>
      <stop offset="0.28" stop-color="#1f58a7"/>
      <stop offset="0.29" stop-color="#1f59a8"/>
      <stop offset="0.29" stop-color="#1f5aa8"/>
      <stop offset="0.29" stop-color="#1f5ba9"/>
      <stop offset="0.3" stop-color="#1f5ba9"/>
      <stop offset="0.3" stop-color="#1f5caa"/>
      <stop offset="0.3" stop-color="#205daa"/>
      <stop offset="0.31" stop-color="#205eab"/>
      <stop offset="0.31" stop-color="#205eab"/>
      <stop offset="0.32" stop-color="#205fac"/>
      <stop offset="0.32" stop-color="#2060ac"/>
      <stop offset="0.32" stop-color="#2061ad"/>
      <stop offset="0.33" stop-color="#2161ad"/>
      <stop offset="0.33" stop-color="#2162ae"/>
      <stop offset="0.34" stop-color="#2163ae"/>
      <stop offset="0.34" stop-color="#2164af"/>
      <stop offset="0.34" stop-color="#2164af"/>
      <stop offset="0.35" stop-color="#2165b0"/>
      <stop offset="0.35" stop-color="#2266b0"/>
      <stop offset="0.36" stop-color="#2266b1"/>
      <stop offset="0.36" stop-color="#2267b1"/>
      <stop offset="0.36" stop-color="#2268b2"/>
      <stop offset="0.37" stop-color="#2269b2"/>
      <stop offset="0.37" stop-color="#2269b3"/>
      <stop offset="0.38" stop-color="#226ab3"/>
      <stop offset="0.38" stop-color="#236bb4"/>
      <stop offset="0.38" stop-color="#236cb4"/>
      <stop offset="0.39" stop-color="#236cb5"/>
      <stop offset="0.39" stop-color="#236db5"/>
      <stop offset="0.39" stop-color="#236eb6"/>
      <stop offset="0.4" stop-color="#236fb6"/>
      <stop offset="0.4" stop-color="#246fb7"/>
      <stop offset="0.41" stop-color="#2470b7"/>
      <stop offset="0.41" stop-color="#2471b8"/>
      <stop offset="0.41" stop-color="#2472b8"/>
      <stop offset="0.42" stop-color="#2472b9"/>
      <stop offset="0.42" stop-color="#2473b9"/>
      <stop offset="0.43" stop-color="#2574ba"/>
      <stop offset="0.43" stop-color="#2575ba"/>
      <stop offset="0.43" stop-color="#2575bb"/>
      <stop offset="0.44" stop-color="#2576bb"/>
      <stop offset="0.44" stop-color="#2577bc"/>
      <stop offset="0.45" stop-color="#2578bc"/>
      <stop offset="0.45" stop-color="#2678bd"/>
      <stop offset="0.45" stop-color="#2679bd"/>
      <stop offset="0.46" stop-color="#267abe"/>
      <stop offset="0.46" stop-color="#267bbe"/>
      <stop offset="0.46" stop-color="#267bbf"/>
      <stop offset="0.47" stop-color="#267cbf"/>
      <stop offset="0.47" stop-color="#277dc0"/>
      <stop offset="0.48" stop-color="#277ec0"/>
      <stop offset="0.48" stop-color="#277ec1"/>
      <stop offset="0.48" stop-color="#277fc1"/>
      <stop offset="0.49" stop-color="#2780c2"/>
      <stop offset="0.49" stop-color="#2781c2"/>
      <stop offset="0.5" stop-color="#2881c3"/>
      <stop offset="0.5" stop-color="#2882c3"/>
      <stop offset="0.5" stop-color="#2883c4"/>
      <stop offset="0.51" stop-color="#2883c4"/>
      <stop offset="0.51" stop-color="#2884c5"/>
      <stop offset="0.52" stop-color="#2885c5"/>
      <stop offset="0.52" stop-color="#2886c6"/>
      <stop offset="0.52" stop-color="#2986c6"/>
      <stop offset="0.53" stop-color="#2987c7"/>
      <stop offset="0.53" stop-color="#2988c7"/>
      <stop offset="0.54" stop-color="#2989c8"/>
      <stop offset="0.54" stop-color="#2989c8"/>
      <stop offset="0.54" stop-color="#298ac9"/>
      <stop offset="0.55" stop-color="#2a8bc9"/>
      <stop offset="0.55" stop-color="#2a8cca"/>
      <stop offset="0.55" stop-color="#2a8cca"/>
      <stop offset="0.56" stop-color="#2a8dcb"/>
      <stop offset="0.56" stop-color="#2a8ecb"/>
      <stop offset="0.57" stop-color="#2a8fcc"/>
      <stop offset="0.57" stop-color="#2b8fcc"/>
      <stop offset="0.57" stop-color="#2b90cd"/>
      <stop offset="0.58" stop-color="#2b91cd"/>
      <stop offset="0.58" stop-color="#2b92ce"/>
      <stop offset="0.59" stop-color="#2b92ce"/>
      <stop offset="0.59" stop-color="#2b93cf"/>
      <stop offset="0.59" stop-color="#2c94cf"/>
      <stop offset="0.6" stop-color="#2c95d0"/>
      <stop offset="0.6" stop-color="#2c95d0"/>
      <stop offset="0.61" stop-color="#2c96d1"/>
      <stop offset="0.61" stop-color="#2c97d1"/>
      <stop offset="0.61" stop-color="#2c98d2"/>
      <stop offset="0.62" stop-color="#2d98d2"/>
      <stop offset="0.62" stop-color="#2d99d3"/>
      <stop offset="0.63" stop-color="#2d9ad3"/>
      <stop offset="0.63" stop-color="#2d9bd4"/>
      <stop offset="0.63" stop-color="#2d9bd4"/>
      <stop offset="0.64" stop-color="#2d9cd5"/>
      <stop offset="0.64" stop-color="#2e9dd5"/>
      <stop offset="0.64" stop-color="#2e9ed6"/>
      <stop offset="0.65" stop-color="#2e9ed6"/>
      <stop offset="0.65" stop-color="#2e9fd7"/>
      <stop offset="0.66" stop-color="#2ea0d7"/>
      <stop offset="0.66" stop-color="#2ea0d8"/>
      <stop offset="0.66" stop-color="#2ea1d8"/>
      <stop offset="0.67" stop-color="#2fa2d9"/>
      <stop offset="0.67" stop-color="#2fa3d9"/>
      <stop offset="0.68" stop-color="#2fa3da"/>
      <stop offset="0.68" stop-color="#2fa4da"/>
      <stop offset="0.68" stop-color="#2fa5db"/>
      <stop offset="0.69" stop-color="#2fa6db"/>
      <stop offset="0.69" stop-color="#30a6dc"/>
      <stop offset="0.7" stop-color="#30a7dc"/>
      <stop offset="0.7" stop-color="#30a8dd"/>
      <stop offset="0.7" stop-color="#30a9dd"/>
      <stop offset="0.71" stop-color="#30a9de"/>
      <stop offset="0.71" stop-color="#30aade"/>
      <stop offset="0.71" stop-color="#31abdf"/>
      <stop offset="0.72" stop-color="#31acdf"/>
      <stop offset="0.72" stop-color="#31ace0"/>
      <stop offset="0.73" stop-color="#31ade0"/>
      <stop offset="0.73" stop-color="#31aee1"/>
      <stop offset="0.73" stop-color="#31afe1"/>
      <stop offset="0.74" stop-color="#32afe2"/>
      <stop offset="0.74" stop-color="#32b0e2"/>
      <stop offset="0.75" stop-color="#32b1e3"/>
      <stop offset="0.75" stop-color="#32b2e3"/>
      <stop offset="0.75" stop-color="#32b2e4"/>
      <stop offset="0.76" stop-color="#32b3e4"/>
      <stop offset="0.76" stop-color="#33b4e5"/>
      <stop offset="0.77" stop-color="#33b5e5"/>
      <stop offset="0.77" stop-color="#33b5e6"/>
      <stop offset="0.77" stop-color="#33b6e6"/>
      <stop offset="0.78" stop-color="#33b7e7"/>
      <stop offset="0.78" stop-color="#33b8e7"/>
      <stop offset="0.79" stop-color="#33b8e8"/>
      <stop offset="0.79" stop-color="#34b9e8"/>
      <stop offset="0.79" stop-color="#34bae9"/>
      <stop offset="0.8" stop-color="#34bbe9"/>
      <stop offset="0.8" stop-color="#34bbea"/>
      <stop offset="0.8" stop-color="#34bcea"/>
      <stop offset="0.81" stop-color="#34bdeb"/>
      <stop offset="0.81" stop-color="#35beec"/>
      <stop offset="0.82" stop-color="#35beec"/>
      <stop offset="0.82" stop-color="#35bfed"/>
      <stop offset="0.82" stop-color="#35c0ed"/>
      <stop offset="0.83" stop-color="#35c0ee"/>
      <stop offset="0.83" stop-color="#35c1ee"/>
      <stop offset="0.84" stop-color="#36c2ef"/>
      <stop offset="0.84" stop-color="#36c3ef"/>
      <stop offset="0.84" stop-color="#36c3f0"/>
      <stop offset="0.88" stop-color="#36c4f0"/>
      <stop offset="1" stop-color="#36c4f0"/>
    </linearGradient>
    <clipPath id="clip-path-3">
      <rect id="SVGID-3" data-name="SVGID" class="cls-1" x="7.84" y="14.96" width="3.37" height="6.75"/>
    </clipPath>
    <clipPath id="clip-path-4">
      <path id="SVGID-4" data-name="SVGID" class="cls-1" d="M9,15,7.84,16.68a3.61,3.61,0,0,1,.43,5l2.94-1.39S11,15.12,9,15Z"/>
    </clipPath>
    <linearGradient id="linear-gradient-2" x1="-411.79" y1="-2503.73" x2="-411.45" y2="-2506.39" gradientTransform="matrix(1.08, 2.29, 2.29, -1.08, 6189.35, -1742.23)" gradientUnits="userSpaceOnUse">
      <stop offset="0" stop-color="#00468f"/>
      <stop offset="0.14" stop-color="#00468f"/>
      <stop offset="0.25" stop-color="#00468f"/>
      <stop offset="0.38" stop-color="#00468f"/>
      <stop offset="0.44" stop-color="#00468f"/>
      <stop offset="0.47" stop-color="#00468f"/>
      <stop offset="0.48" stop-color="#014790"/>
      <stop offset="0.48" stop-color="#014790"/>
      <stop offset="0.49" stop-color="#014791"/>
      <stop offset="0.5" stop-color="#024891"/>
      <stop offset="0.51" stop-color="#024892"/>
      <stop offset="0.52" stop-color="#034892"/>
      <stop offset="0.52" stop-color="#034993"/>
      <stop offset="0.53" stop-color="#044993"/>
      <stop offset="0.54" stop-color="#044994"/>
      <stop offset="0.55" stop-color="#054a94"/>
      <stop offset="0.55" stop-color="#054a95"/>
      <stop offset="0.56" stop-color="#064b95"/>
      <stop offset="0.57" stop-color="#064b96"/>
      <stop offset="0.58" stop-color="#074b96"/>
      <stop offset="0.59" stop-color="#074c97"/>
      <stop offset="0.59" stop-color="#084c98"/>
      <stop offset="0.6" stop-color="#084c98"/>
      <stop offset="0.61" stop-color="#094d99"/>
      <stop offset="0.62" stop-color="#094d99"/>
      <stop offset="0.63" stop-color="#0a4d9a"/>
      <stop offset="0.63" stop-color="#0a4e9a"/>
      <stop offset="0.64" stop-color="#0b4e9b"/>
      <stop offset="0.65" stop-color="#0b4f9b"/>
      <stop offset="0.66" stop-color="#0c4f9c"/>
      <stop offset="0.66" stop-color="#0c4f9c"/>
      <stop offset="0.67" stop-color="#0d509d"/>
      <stop offset="0.68" stop-color="#0d509d"/>
      <stop offset="0.69" stop-color="#0e509e"/>
      <stop offset="0.7" stop-color="#0e519e"/>
      <stop offset="0.7" stop-color="#0e519f"/>
      <stop offset="0.71" stop-color="#0f519f"/>
      <stop offset="0.72" stop-color="#0f52a0"/>
      <stop offset="0.73" stop-color="#1052a1"/>
      <stop offset="0.73" stop-color="#1053a1"/>
      <stop offset="0.74" stop-color="#1153a2"/>
      <stop offset="0.75" stop-color="#1153a2"/>
      <stop offset="0.76" stop-color="#1254a3"/>
      <stop offset="0.77" stop-color="#1254a3"/>
      <stop offset="0.77" stop-color="#1354a4"/>
      <stop offset="0.78" stop-color="#1355a4"/>
      <stop offset="0.79" stop-color="#1455a5"/>
      <stop offset="0.8" stop-color="#1455a5"/>
      <stop offset="0.81" stop-color="#1556a6"/>
      <stop offset="0.86" stop-color="#1556a6"/>
      <stop offset="0.88" stop-color="#1556a6"/>
      <stop offset="1" stop-color="#1556a6"/>
    </linearGradient>
    <clipPath id="clip-path-5">
      <rect id="SVGID-5" data-name="SVGID" class="cls-1" x="11.44" y="1.29" width="8.28" height="9.45"/>
    </clipPath>
    <clipPath id="clip-path-6">
      <path id="SVGID-6" data-name="SVGID" class="cls-1" d="M13.75,3.92l5.53-2.6s.71-.18.32.43-6,9-6,9L11.46,6Z"/>
    </clipPath>
    <linearGradient id="linear-gradient-3" x1="-415.01" y1="-2503.08" x2="-415.01" y2="-2498.54" gradientTransform="matrix(1.08, 2.29, 2.29, -1.08, 6189.35, -1742.23)" gradientUnits="userSpaceOnUse">
      <stop offset="0" stop-color="#1b489c"/>
      <stop offset="0.13" stop-color="#1b489c"/>
      <stop offset="0.16" stop-color="#1b489c"/>
      <stop offset="0.17" stop-color="#1b489c"/>
      <stop offset="0.18" stop-color="#1b489c"/>
      <stop offset="0.18" stop-color="#1b499d"/>
      <stop offset="0.18" stop-color="#1b4a9d"/>
      <stop offset="0.19" stop-color="#1c4a9e"/>
      <stop offset="0.19" stop-color="#1c4b9e"/>
      <stop offset="0.2" stop-color="#1c4b9e"/>
      <stop offset="0.2" stop-color="#1c4c9f"/>
      <stop offset="0.2" stop-color="#1c4d9f"/>
      <stop offset="0.21" stop-color="#1c4da0"/>
      <stop offset="0.21" stop-color="#1c4ea0"/>
      <stop offset="0.21" stop-color="#1c4ea0"/>
      <stop offset="0.22" stop-color="#1d4fa1"/>
      <stop offset="0.22" stop-color="#1d4fa1"/>
      <stop offset="0.23" stop-color="#1d50a2"/>
      <stop offset="0.23" stop-color="#1d51a2"/>
      <stop offset="0.23" stop-color="#1d51a2"/>
      <stop offset="0.24" stop-color="#1d52a3"/>
      <stop offset="0.24" stop-color="#1d52a3"/>
      <stop offset="0.25" stop-color="#1d53a4"/>
      <stop offset="0.25" stop-color="#1e54a4"/>
      <stop offset="0.25" stop-color="#1e54a4"/>
      <stop offset="0.26" stop-color="#1e55a5"/>
      <stop offset="0.26" stop-color="#1e55a5"/>
      <stop offset="0.27" stop-color="#1e56a6"/>
      <stop offset="0.27" stop-color="#1e57a6"/>
      <stop offset="0.27" stop-color="#1e57a6"/>
      <stop offset="0.28" stop-color="#1e58a7"/>
      <stop offset="0.28" stop-color="#1f58a7"/>
      <stop offset="0.29" stop-color="#1f59a8"/>
      <stop offset="0.29" stop-color="#1f59a8"/>
      <stop offset="0.29" stop-color="#1f5aa8"/>
      <stop offset="0.3" stop-color="#1f5ba9"/>
      <stop offset="0.3" stop-color="#1f5ba9"/>
      <stop offset="0.3" stop-color="#1f5caa"/>
      <stop offset="0.31" stop-color="#1f5caa"/>
      <stop offset="0.31" stop-color="#205daa"/>
      <stop offset="0.32" stop-color="#205eab"/>
      <stop offset="0.32" stop-color="#205eab"/>
      <stop offset="0.32" stop-color="#205fac"/>
      <stop offset="0.33" stop-color="#205fac"/>
      <stop offset="0.33" stop-color="#2060ac"/>
      <stop offset="0.34" stop-color="#2061ad"/>
      <stop offset="0.34" stop-color="#2161ad"/>
      <stop offset="0.34" stop-color="#2162ae"/>
      <stop offset="0.35" stop-color="#2162ae"/>
      <stop offset="0.35" stop-color="#2163ae"/>
      <stop offset="0.36" stop-color="#2164af"/>
      <stop offset="0.36" stop-color="#2164af"/>
      <stop offset="0.36" stop-color="#2165b0"/>
      <stop offset="0.37" stop-color="#2165b0"/>
      <stop offset="0.37" stop-color="#2266b0"/>
      <stop offset="0.38" stop-color="#2266b1"/>
      <stop offset="0.38" stop-color="#2267b1"/>
      <stop offset="0.38" stop-color="#2268b2"/>
      <stop offset="0.39" stop-color="#2268b2"/>
      <stop offset="0.39" stop-color="#2269b2"/>
      <stop offset="0.39" stop-color="#2269b3"/>
      <stop offset="0.4" stop-color="#226ab3"/>
      <stop offset="0.4" stop-color="#236bb4"/>
      <stop offset="0.41" stop-color="#236bb4"/>
      <stop offset="0.41" stop-color="#236cb4"/>
      <stop offset="0.41" stop-color="#236cb5"/>
      <stop offset="0.42" stop-color="#236db5"/>
      <stop offset="0.42" stop-color="#236eb5"/>
      <stop offset="0.43" stop-color="#236eb6"/>
      <stop offset="0.43" stop-color="#236fb6"/>
      <stop offset="0.43" stop-color="#246fb7"/>
      <stop offset="0.44" stop-color="#2470b7"/>
      <stop offset="0.44" stop-color="#2471b7"/>
      <stop offset="0.45" stop-color="#2471b8"/>
      <stop offset="0.45" stop-color="#2472b8"/>
      <stop offset="0.45" stop-color="#2472b9"/>
      <stop offset="0.46" stop-color="#2473b9"/>
      <stop offset="0.46" stop-color="#2573b9"/>
      <stop offset="0.46" stop-color="#2574ba"/>
      <stop offset="0.47" stop-color="#2575ba"/>
      <stop offset="0.47" stop-color="#2575bb"/>
      <stop offset="0.48" stop-color="#2576bb"/>
      <stop offset="0.48" stop-color="#2576bb"/>
      <stop offset="0.48" stop-color="#2577bc"/>
      <stop offset="0.49" stop-color="#2578bc"/>
      <stop offset="0.49" stop-color="#2678bd"/>
      <stop offset="0.5" stop-color="#2679bd"/>
      <stop offset="0.5" stop-color="#2679bd"/>
      <stop offset="0.5" stop-color="#267abe"/>
      <stop offset="0.51" stop-color="#267bbe"/>
      <stop offset="0.51" stop-color="#267bbf"/>
      <stop offset="0.52" stop-color="#267cbf"/>
      <stop offset="0.52" stop-color="#267cbf"/>
      <stop offset="0.52" stop-color="#277dc0"/>
      <stop offset="0.53" stop-color="#277ec0"/>
      <stop offset="0.53" stop-color="#277ec1"/>
      <stop offset="0.54" stop-color="#277fc1"/>
      <stop offset="0.54" stop-color="#277fc1"/>
      <stop offset="0.54" stop-color="#2780c2"/>
      <stop offset="0.55" stop-color="#2780c2"/>
      <stop offset="0.55" stop-color="#2781c3"/>
      <stop offset="0.55" stop-color="#2882c3"/>
      <stop offset="0.56" stop-color="#2882c3"/>
      <stop offset="0.56" stop-color="#2883c4"/>
      <stop offset="0.57" stop-color="#2883c4"/>
      <stop offset="0.57" stop-color="#2884c5"/>
      <stop offset="0.57" stop-color="#2885c5"/>
      <stop offset="0.58" stop-color="#2885c5"/>
      <stop offset="0.58" stop-color="#2886c6"/>
      <stop offset="0.59" stop-color="#2986c6"/>
      <stop offset="0.59" stop-color="#2987c7"/>
      <stop offset="0.59" stop-color="#2988c7"/>
      <stop offset="0.6" stop-color="#2988c7"/>
      <stop offset="0.6" stop-color="#2989c8"/>
      <stop offset="0.61" stop-color="#2989c8"/>
      <stop offset="0.61" stop-color="#298ac9"/>
      <stop offset="0.61" stop-color="#2a8ac9"/>
      <stop offset="0.62" stop-color="#2a8bc9"/>
      <stop offset="0.62" stop-color="#2a8cca"/>
      <stop offset="0.63" stop-color="#2a8cca"/>
      <stop offset="0.63" stop-color="#2a8dcb"/>
      <stop offset="0.63" stop-color="#2a8dcb"/>
      <stop offset="0.64" stop-color="#2a8ecb"/>
      <stop offset="0.64" stop-color="#2a8fcc"/>
      <stop offset="0.64" stop-color="#2b8fcc"/>
      <stop offset="0.65" stop-color="#2b90cd"/>
      <stop offset="0.65" stop-color="#2b90cd"/>
      <stop offset="0.66" stop-color="#2b91cd"/>
      <stop offset="0.66" stop-color="#2b92ce"/>
      <stop offset="0.66" stop-color="#2b92ce"/>
      <stop offset="0.67" stop-color="#2b93cf"/>
      <stop offset="0.67" stop-color="#2b93cf"/>
      <stop offset="0.68" stop-color="#2c94cf"/>
      <stop offset="0.68" stop-color="#2c95d0"/>
      <stop offset="0.68" stop-color="#2c95d0"/>
      <stop offset="0.69" stop-color="#2c96d1"/>
      <stop offset="0.69" stop-color="#2c96d1"/>
      <stop offset="0.7" stop-color="#2c97d1"/>
      <stop offset="0.7" stop-color="#2c97d2"/>
      <stop offset="0.7" stop-color="#2c98d2"/>
      <stop offset="0.71" stop-color="#2d99d3"/>
      <stop offset="0.71" stop-color="#2d99d3"/>
      <stop offset="0.71" stop-color="#2d9ad3"/>
      <stop offset="0.72" stop-color="#2d9ad4"/>
      <stop offset="0.72" stop-color="#2d9bd4"/>
      <stop offset="0.73" stop-color="#2d9cd5"/>
      <stop offset="0.73" stop-color="#2d9cd5"/>
      <stop offset="0.73" stop-color="#2e9dd5"/>
      <stop offset="0.74" stop-color="#2e9dd6"/>
      <stop offset="0.74" stop-color="#2e9ed6"/>
      <stop offset="0.75" stop-color="#2e9fd7"/>
      <stop offset="0.75" stop-color="#2e9fd7"/>
      <stop offset="0.75" stop-color="#2ea0d7"/>
      <stop offset="0.76" stop-color="#2ea0d8"/>
      <stop offset="0.76" stop-color="#2ea1d8"/>
      <stop offset="0.77" stop-color="#2fa2d9"/>
      <stop offset="0.77" stop-color="#2fa2d9"/>
      <stop offset="0.77" stop-color="#2fa3d9"/>
      <stop offset="0.78" stop-color="#2fa3da"/>
      <stop offset="0.78" stop-color="#2fa4da"/>
      <stop offset="0.79" stop-color="#2fa4db"/>
      <stop offset="0.79" stop-color="#2fa5db"/>
      <stop offset="0.79" stop-color="#2fa6db"/>
      <stop offset="0.8" stop-color="#30a6dc"/>
      <stop offset="0.8" stop-color="#30a7dc"/>
      <stop offset="0.8" stop-color="#30a7dd"/>
      <stop offset="0.81" stop-color="#30a8dd"/>
      <stop offset="0.81" stop-color="#30a9dd"/>
      <stop offset="0.82" stop-color="#30a9de"/>
      <stop offset="0.82" stop-color="#30aade"/>
      <stop offset="0.82" stop-color="#30aadf"/>
      <stop offset="0.83" stop-color="#31abdf"/>
      <stop offset="0.83" stop-color="#31acdf"/>
      <stop offset="0.84" stop-color="#31ace0"/>
      <stop offset="0.84" stop-color="#31ade0"/>
      <stop offset="0.84" stop-color="#31ade1"/>
      <stop offset="0.85" stop-color="#31aee1"/>
      <stop offset="0.85" stop-color="#31aee1"/>
      <stop offset="0.86" stop-color="#31afe2"/>
      <stop offset="0.86" stop-color="#32b0e2"/>
      <stop offset="0.86" stop-color="#32b0e3"/>
      <stop offset="0.87" stop-color="#32b1e3"/>
      <stop offset="0.87" stop-color="#32b1e3"/>
      <stop offset="0.88" stop-color="#32b2e4"/>
      <stop offset="0.88" stop-color="#32b3e4"/>
      <stop offset="0.88" stop-color="#32b3e5"/>
      <stop offset="0.89" stop-color="#33b4e5"/>
      <stop offset="0.89" stop-color="#33b4e5"/>
      <stop offset="0.89" stop-color="#33b5e6"/>
      <stop offset="0.9" stop-color="#33b6e6"/>
      <stop offset="0.9" stop-color="#33b6e7"/>
      <stop offset="0.91" stop-color="#33b7e7"/>
      <stop offset="0.91" stop-color="#33b7e7"/>
      <stop offset="0.91" stop-color="#33b8e8"/>
      <stop offset="0.92" stop-color="#34b9e8"/>
      <stop offset="0.92" stop-color="#34b9e9"/>
      <stop offset="0.93" stop-color="#34bae9"/>
      <stop offset="0.93" stop-color="#34bae9"/>
      <stop offset="0.93" stop-color="#34bbea"/>
      <stop offset="0.94" stop-color="#34bbea"/>
      <stop offset="0.94" stop-color="#34bceb"/>
      <stop offset="0.95" stop-color="#34bdeb"/>
      <stop offset="0.95" stop-color="#35bdeb"/>
      <stop offset="0.95" stop-color="#35beec"/>
      <stop offset="0.96" stop-color="#35beec"/>
      <stop offset="0.96" stop-color="#35bfed"/>
      <stop offset="0.96" stop-color="#35c0ed"/>
      <stop offset="0.97" stop-color="#35c0ed"/>
      <stop offset="0.97" stop-color="#35c1ee"/>
      <stop offset="0.98" stop-color="#35c1ee"/>
      <stop offset="0.98" stop-color="#36c2ef"/>
      <stop offset="0.98" stop-color="#36c3ef"/>
      <stop offset="0.99" stop-color="#36c3ef"/>
      <stop offset="0.99" stop-color="#36c4f0"/>
      <stop offset="1" stop-color="#36c4f0"/>
    </linearGradient>
    <clipPath id="clip-path-7">
      <rect id="SVGID-7" data-name="SVGID" class="cls-1" x="11.67" y="3.53" width="3.45" height="6.67"/>
    </clipPath>
    <clipPath id="clip-path-8">
      <path id="SVGID-8" data-name="SVGID" class="cls-1" d="M13.9,10.2l1.15-1.65a3.6,3.6,0,0,1-.43-5L11.69,4.92S11.92,10.11,13.9,10.2Z"/>
    </clipPath>
    <linearGradient id="linear-gradient-4" x1="57.34" y1="99.3" x2="59.76" y2="101.52" gradientTransform="matrix(2.48, 0.53, 0.53, -2.48, -184.42, 224.96)" gradientUnits="userSpaceOnUse">
      <stop offset="0" stop-color="#00468f"/>
      <stop offset="0.25" stop-color="#00468f"/>
      <stop offset="0.38" stop-color="#00468f"/>
      <stop offset="0.41" stop-color="#00468f"/>
      <stop offset="0.41" stop-color="#014790"/>
      <stop offset="0.41" stop-color="#014791"/>
      <stop offset="0.42" stop-color="#024891"/>
      <stop offset="0.43" stop-color="#024892"/>
      <stop offset="0.44" stop-color="#034892"/>
      <stop offset="0.45" stop-color="#044993"/>
      <stop offset="0.45" stop-color="#054a94"/>
      <stop offset="0.46" stop-color="#054a95"/>
      <stop offset="0.47" stop-color="#064b96"/>
      <stop offset="0.48" stop-color="#074b97"/>
      <stop offset="0.48" stop-color="#084c98"/>
      <stop offset="0.49" stop-color="#094d98"/>
      <stop offset="0.5" stop-color="#094d99"/>
      <stop offset="0.51" stop-color="#0a4e9a"/>
      <stop offset="0.52" stop-color="#0b4e9b"/>
      <stop offset="0.52" stop-color="#0c4f9c"/>
      <stop offset="0.53" stop-color="#0d509d"/>
      <stop offset="0.54" stop-color="#0d509e"/>
      <stop offset="0.55" stop-color="#0e519f"/>
      <stop offset="0.55" stop-color="#0f519f"/>
      <stop offset="0.56" stop-color="#1052a0"/>
      <stop offset="0.57" stop-color="#1053a1"/>
      <stop offset="0.58" stop-color="#1153a2"/>
      <stop offset="0.59" stop-color="#1254a3"/>
      <stop offset="0.59" stop-color="#1354a4"/>
      <stop offset="0.6" stop-color="#1455a5"/>
      <stop offset="0.61" stop-color="#1456a5"/>
      <stop offset="0.63" stop-color="#1556a6"/>
      <stop offset="0.75" stop-color="#1556a6"/>
      <stop offset="1" stop-color="#1556a6"/>
    </linearGradient>
    <clipPath id="clip-path-9">
      <rect id="SVGID-9" data-name="SVGID" class="cls-1" x="6.23" y="3.84" width="10.28" height="17.95"/>
    </clipPath>
    <clipPath id="clip-path-10">
      <path id="SVGID-10" data-name="SVGID" class="cls-1" d="M13.88,3.86,7,7.09a1.36,1.36,0,0,0-.65,1.78l3.67,7.81a3.55,3.55,0,0,1-1.81,5l7.54-3.58a1.79,1.79,0,0,0,.48-2.22C15.71,14.77,13.05,9,13.05,9S11.24,5.79,13.88,3.86Z"/>
    </clipPath>
    <linearGradient id="linear-gradient-5" x1="-417.41" y1="-2503.49" x2="-409.2" y2="-2503.49" gradientTransform="matrix(1.08, 2.29, 2.29, -1.08, 6189.35, -1742.23)" gradientUnits="userSpaceOnUse">
      <stop offset="0" stop-color="#246cb4"/>
      <stop offset="0.13" stop-color="#246cb4"/>
      <stop offset="0.16" stop-color="#246cb4"/>
      <stop offset="0.16" stop-color="#246cb4"/>
      <stop offset="0.17" stop-color="#236cb5"/>
      <stop offset="0.17" stop-color="#236db5"/>
      <stop offset="0.18" stop-color="#226db6"/>
      <stop offset="0.18" stop-color="#216db7"/>
      <stop offset="0.18" stop-color="#206eb7"/>
      <stop offset="0.19" stop-color="#1f6eb8"/>
      <stop offset="0.19" stop-color="#1e6eb9"/>
      <stop offset="0.2" stop-color="#1d6fb9"/>
      <stop offset="0.2" stop-color="#1c6fba"/>
      <stop offset="0.2" stop-color="#1b6fbb"/>
      <stop offset="0.21" stop-color="#1a70bb"/>
      <stop offset="0.21" stop-color="#1970bc"/>
      <stop offset="0.21" stop-color="#1870bd"/>
      <stop offset="0.22" stop-color="#1771be"/>
      <stop offset="0.22" stop-color="#1671be"/>
      <stop offset="0.23" stop-color="#1671bf"/>
      <stop offset="0.23" stop-color="#1572c0"/>
      <stop offset="0.23" stop-color="#1472c0"/>
      <stop offset="0.24" stop-color="#1372c1"/>
      <stop offset="0.24" stop-color="#1273c2"/>
      <stop offset="0.25" stop-color="#1173c2"/>
      <stop offset="0.25" stop-color="#1073c3"/>
      <stop offset="0.25" stop-color="#0f74c4"/>
      <stop offset="0.26" stop-color="#0e74c5"/>
      <stop offset="0.26" stop-color="#0d74c5"/>
      <stop offset="0.27" stop-color="#0c75c6"/>
      <stop offset="0.27" stop-color="#0b75c7"/>
      <stop offset="0.27" stop-color="#0a75c7"/>
      <stop offset="0.28" stop-color="#0a76c8"/>
      <stop offset="0.28" stop-color="#0976c9"/>
      <stop offset="0.29" stop-color="#0876ca"/>
      <stop offset="0.29" stop-color="#0777ca"/>
      <stop offset="0.29" stop-color="#0677cb"/>
      <stop offset="0.3" stop-color="#0577cc"/>
      <stop offset="0.3" stop-color="#0478cc"/>
      <stop offset="0.3" stop-color="#0378cd"/>
      <stop offset="0.31" stop-color="#0479cd"/>
      <stop offset="0.31" stop-color="#047ace"/>
      <stop offset="0.32" stop-color="#057ace"/>
      <stop offset="0.32" stop-color="#057bce"/>
      <stop offset="0.32" stop-color="#067ccf"/>
      <stop offset="0.33" stop-color="#067dcf"/>
      <stop offset="0.33" stop-color="#077dcf"/>
      <stop offset="0.34" stop-color="#077ed0"/>
      <stop offset="0.34" stop-color="#087fd0"/>
      <stop offset="0.34" stop-color="#087fd0"/>
      <stop offset="0.35" stop-color="#0980d1"/>
      <stop offset="0.35" stop-color="#0981d1"/>
      <stop offset="0.36" stop-color="#0982d1"/>
      <stop offset="0.36" stop-color="#0a82d2"/>
      <stop offset="0.36" stop-color="#0a83d2"/>
      <stop offset="0.37" stop-color="#0b84d2"/>
      <stop offset="0.37" stop-color="#0b85d3"/>
      <stop offset="0.38" stop-color="#0c85d3"/>
      <stop offset="0.38" stop-color="#0c86d3"/>
      <stop offset="0.38" stop-color="#0d87d4"/>
      <stop offset="0.39" stop-color="#0d88d4"/>
      <stop offset="0.39" stop-color="#0e88d4"/>
      <stop offset="0.39" stop-color="#0e89d5"/>
      <stop offset="0.4" stop-color="#0f8ad5"/>
      <stop offset="0.4" stop-color="#0f8bd5"/>
      <stop offset="0.41" stop-color="#108bd6"/>
      <stop offset="0.41" stop-color="#108cd6"/>
      <stop offset="0.41" stop-color="#118dd7"/>
      <stop offset="0.42" stop-color="#118dd7"/>
      <stop offset="0.42" stop-color="#128ed7"/>
      <stop offset="0.43" stop-color="#128fd8"/>
      <stop offset="0.43" stop-color="#1390d8"/>
      <stop offset="0.43" stop-color="#1390d8"/>
      <stop offset="0.44" stop-color="#1491d9"/>
      <stop offset="0.44" stop-color="#1492d9"/>
      <stop offset="0.45" stop-color="#1593d9"/>
      <stop offset="0.45" stop-color="#1593da"/>
      <stop offset="0.45" stop-color="#1694da"/>
      <stop offset="0.46" stop-color="#1695da"/>
      <stop offset="0.46" stop-color="#1796db"/>
      <stop offset="0.46" stop-color="#1796db"/>
      <stop offset="0.47" stop-color="#1897db"/>
      <stop offset="0.47" stop-color="#1898dc"/>
      <stop offset="0.48" stop-color="#1999dc"/>
      <stop offset="0.48" stop-color="#1999dc"/>
      <stop offset="0.48" stop-color="#1a9add"/>
      <stop offset="0.49" stop-color="#1a9bdd"/>
      <stop offset="0.49" stop-color="#1b9bdd"/>
      <stop offset="0.5" stop-color="#1b9cde"/>
      <stop offset="0.5" stop-color="#1c9dde"/>
      <stop offset="0.5" stop-color="#1c9ede"/>
      <stop offset="0.51" stop-color="#1d9edf"/>
      <stop offset="0.51" stop-color="#1d9fdf"/>
      <stop offset="0.52" stop-color="#1ea0df"/>
      <stop offset="0.52" stop-color="#1ea1e0"/>
      <stop offset="0.52" stop-color="#1fa1e0"/>
      <stop offset="0.53" stop-color="#1fa2e0"/>
      <stop offset="0.53" stop-color="#20a3e1"/>
      <stop offset="0.54" stop-color="#20a4e1"/>
      <stop offset="0.54" stop-color="#21a4e1"/>
      <stop offset="0.54" stop-color="#21a5e2"/>
      <stop offset="0.55" stop-color="#22a6e2"/>
      <stop offset="0.55" stop-color="#22a7e2"/>
      <stop offset="0.55" stop-color="#23a7e3"/>
      <stop offset="0.56" stop-color="#23a8e3"/>
      <stop offset="0.56" stop-color="#24a9e3"/>
      <stop offset="0.57" stop-color="#24a9e4"/>
      <stop offset="0.57" stop-color="#25aae4"/>
      <stop offset="0.57" stop-color="#25abe4"/>
      <stop offset="0.58" stop-color="#26ace5"/>
      <stop offset="0.58" stop-color="#26ace5"/>
      <stop offset="0.59" stop-color="#27ade5"/>
      <stop offset="0.59" stop-color="#27aee6"/>
      <stop offset="0.59" stop-color="#28afe6"/>
      <stop offset="0.6" stop-color="#28afe6"/>
      <stop offset="0.6" stop-color="#29b0e7"/>
      <stop offset="0.61" stop-color="#29b1e7"/>
      <stop offset="0.61" stop-color="#2ab2e7"/>
      <stop offset="0.61" stop-color="#2ab2e8"/>
      <stop offset="0.62" stop-color="#2bb3e8"/>
      <stop offset="0.62" stop-color="#2bb4e8"/>
      <stop offset="0.63" stop-color="#2cb5e9"/>
      <stop offset="0.63" stop-color="#2cb5e9"/>
      <stop offset="0.63" stop-color="#2db6e9"/>
      <stop offset="0.64" stop-color="#2db7ea"/>
      <stop offset="0.64" stop-color="#2eb7ea"/>
      <stop offset="0.64" stop-color="#2eb8ea"/>
      <stop offset="0.65" stop-color="#2fb9eb"/>
      <stop offset="0.65" stop-color="#2fbaeb"/>
      <stop offset="0.66" stop-color="#30baeb"/>
      <stop offset="0.66" stop-color="#30bbec"/>
      <stop offset="0.66" stop-color="#31bcec"/>
      <stop offset="0.67" stop-color="#31bded"/>
      <stop offset="0.67" stop-color="#32bded"/>
      <stop offset="0.68" stop-color="#32beed"/>
      <stop offset="0.68" stop-color="#33bfee"/>
      <stop offset="0.68" stop-color="#33c0ee"/>
      <stop offset="0.69" stop-color="#34c0ee"/>
      <stop offset="0.69" stop-color="#34c1ef"/>
      <stop offset="0.7" stop-color="#34c2ef"/>
      <stop offset="0.7" stop-color="#35c3ef"/>
      <stop offset="0.7" stop-color="#35c3f0"/>
      <stop offset="0.71" stop-color="#36c2ef"/>
      <stop offset="0.71" stop-color="#36c2ee"/>
      <stop offset="0.71" stop-color="#35bfed"/>
      <stop offset="0.72" stop-color="#34bceb"/>
      <stop offset="0.72" stop-color="#34b9e9"/>
      <stop offset="0.73" stop-color="#33b7e7"/>
      <stop offset="0.73" stop-color="#33b4e5"/>
      <stop offset="0.73" stop-color="#32b1e3"/>
      <stop offset="0.74" stop-color="#32aee1"/>
      <stop offset="0.74" stop-color="#31abdf"/>
      <stop offset="0.75" stop-color="#31a9de"/>
      <stop offset="0.75" stop-color="#30a6dc"/>
      <stop offset="0.75" stop-color="#2fa3da"/>
      <stop offset="0.76" stop-color="#2fa0d8"/>
      <stop offset="0.76" stop-color="#2e9dd6"/>
      <stop offset="0.77" stop-color="#2e9bd4"/>
      <stop offset="0.77" stop-color="#2d98d2"/>
      <stop offset="0.77" stop-color="#2d95d0"/>
      <stop offset="0.78" stop-color="#2c92cf"/>
      <stop offset="0.78" stop-color="#2b8fcd"/>
      <stop offset="0.79" stop-color="#2b8dcb"/>
      <stop offset="0.79" stop-color="#2a8ac9"/>
      <stop offset="0.79" stop-color="#2a87c7"/>
      <stop offset="0.8" stop-color="#2984c5"/>
      <stop offset="0.8" stop-color="#2981c3"/>
      <stop offset="0.8" stop-color="#287fc2"/>
      <stop offset="0.81" stop-color="#287cc0"/>
      <stop offset="0.81" stop-color="#2779be"/>
      <stop offset="0.82" stop-color="#2676bc"/>
      <stop offset="0.82" stop-color="#2673ba"/>
      <stop offset="0.82" stop-color="#2571b9"/>
      <stop offset="0.83" stop-color="#256fb7"/>
      <stop offset="0.84" stop-color="#256fb7"/>
      <stop offset="0.88" stop-color="#256fb7"/>
      <stop offset="1" stop-color="#256fb7"/>
    </linearGradient>
  </defs>
  <g>
    <path d="M30.32,17.63a4.4,4.4,0,0,1-1.78-.31,2.41,2.41,0,0,1-1.08-.86A2.63,2.63,0,0,1,27,15.22h1.44A1.33,1.33,0,0,0,29,16a2.22,2.22,0,0,0,1.36.32A2.38,2.38,0,0,0,31.76,16a1,1,0,0,0,.43-.81.92.92,0,0,0-.25-.65,1.9,1.9,0,0,0-.73-.44,10.16,10.16,0,0,0-1.27-.34,7.14,7.14,0,0,1-1.46-.48,2.21,2.21,0,0,1-.91-.79,2.4,2.4,0,0,1-.3-1.26,2,2,0,0,1,.34-1.15,2.46,2.46,0,0,1,1-.83A4,4,0,0,1,30.32,9,4.08,4.08,0,0,1,32,9.26a2.33,2.33,0,0,1,1.43,2H31.94a1.18,1.18,0,0,0-.48-.74,1.92,1.92,0,0,0-1.14-.28,2,2,0,0,0-1.24.3.89.89,0,0,0-.37.72.94.94,0,0,0,.48.86,4.76,4.76,0,0,0,1.47.5A8.26,8.26,0,0,1,32,13a3.5,3.5,0,0,1,.92.51,1.81,1.81,0,0,1,.56.72,2.56,2.56,0,0,1,.19,1,2.21,2.21,0,0,1-.37,1.24,2.37,2.37,0,0,1-1.1.86A4.68,4.68,0,0,1,30.32,17.63Z"/>
    <path d="M35.06,17.5V9.1h1.33v4.81L39,11.14h1.57L38,13.84l2.8,3.66H39.24l-2.1-2.82-.75.77V17.5Z"/>
    <path d="M42.69,10.42a.85.85,0,0,1-.61-.23.92.92,0,0,1,0-1.22.85.85,0,0,1,.61-.23.83.83,0,0,1,.6.23.9.9,0,0,1,0,1.22A.83.83,0,0,1,42.69,10.42ZM42,17.5V11.14h1.32V17.5Z"/>
    <path d="M47.19,17.56a2.82,2.82,0,0,1-1.13-.2,1.25,1.25,0,0,1-.64-.66,3,3,0,0,1-.21-1.23V9.1h1.32v6.28a1.27,1.27,0,0,0,.19.81.94.94,0,0,0,.71.22h.22l.2,0v1.14l-.19,0h-.47Z"/>
    <path d="M51.08,17.56a2.77,2.77,0,0,1-1.12-.2,1.25,1.25,0,0,1-.64-.66,2.86,2.86,0,0,1-.21-1.23V9.1h1.31v6.28a1.26,1.26,0,0,0,.2.81.94.94,0,0,0,.71.22h.22l.2,0v1.14l-.19,0h-.48Z"/>
    <path d="M56,17.63a4.42,4.42,0,0,1-1.79-.31,2.47,2.47,0,0,1-1.08-.86,2.63,2.63,0,0,1-.43-1.24h1.44a1.33,1.33,0,0,0,.49.82,2.24,2.24,0,0,0,1.37.32A2.37,2.37,0,0,0,57.44,16a1,1,0,0,0,.43-.81.88.88,0,0,0-.25-.65,1.9,1.9,0,0,0-.73-.44,10.16,10.16,0,0,0-1.27-.34,7.14,7.14,0,0,1-1.46-.48,2.21,2.21,0,0,1-.91-.79,2.4,2.4,0,0,1-.3-1.26,2,2,0,0,1,.34-1.15,2.46,2.46,0,0,1,1-.83A4,4,0,0,1,56,9a4.06,4.06,0,0,1,1.63.29,2.36,2.36,0,0,1,1,.81,2.43,2.43,0,0,1,.42,1.19H57.62a1.18,1.18,0,0,0-.48-.74A1.91,1.91,0,0,0,56,10.24a2.05,2.05,0,0,0-1.25.3.89.89,0,0,0-.37.72.92.92,0,0,0,.48.86,4.76,4.76,0,0,0,1.47.5,8.26,8.26,0,0,1,1.3.36,3.5,3.5,0,0,1,.92.51,1.72,1.72,0,0,1,.56.72,2.56,2.56,0,0,1,.19,1,2.21,2.21,0,0,1-.37,1.24,2.37,2.37,0,0,1-1.1.86A4.66,4.66,0,0,1,56,17.63Z"/>
    <path d="M61.65,20a2.19,2.19,0,0,1-.36,0V18.84a1.47,1.47,0,0,0,.36,0,.69.69,0,0,0,.43-.13,1.14,1.14,0,0,0,.31-.42c.1-.2.21-.48.34-.83L60,11.14h1.43l1.95,4.92,1.75-4.92H66.5L64,17.5A11.5,11.5,0,0,1,63.38,19a2.15,2.15,0,0,1-.7.82A1.81,1.81,0,0,1,61.65,20Z"/>
    <path d="M67.58,17.5V11.14h1.23v1.07a2.17,2.17,0,0,1,.74-.84,2.71,2.71,0,0,1,3.09.27,2.61,2.61,0,0,1,.59,1.84v4H71.91V13.78a1.88,1.88,0,0,0-.34-1.21,1.37,1.37,0,0,0-1.11-.41,1.61,1.61,0,0,0-.89.23,1.37,1.37,0,0,0-.5.6,1.92,1.92,0,0,0-.16.79V17.5Z"/>
    <path d="M77.49,17.63A3.27,3.27,0,0,1,76,17.27a2.48,2.48,0,0,1-1.07-1.08,3.76,3.76,0,0,1-.39-1.81v-.24a3.31,3.31,0,0,1,.41-1.73A2.71,2.71,0,0,1,76,11.36,3.24,3.24,0,0,1,77.49,11a3.1,3.1,0,0,1,1.42.29,2.31,2.31,0,0,1,.91.78,2.73,2.73,0,0,1,.43,1.1H78.9a1.46,1.46,0,0,0-.43-.73,1.43,1.43,0,0,0-1-.29,1.82,1.82,0,0,0-.83.2,1.46,1.46,0,0,0-.6.65,2.47,2.47,0,0,0-.23,1.13v.24a2.82,2.82,0,0,0,.23,1.22,1.47,1.47,0,0,0,.6.67,1.71,1.71,0,0,0,.83.21,1.51,1.51,0,0,0,.91-.25,1.43,1.43,0,0,0,.5-.77h1.35a2.65,2.65,0,0,1-.5,1.16,2.55,2.55,0,0,1-1,.75A3.18,3.18,0,0,1,77.49,17.63Z"/>
  </g>
  <g class="cls-2">
    <g class="cls-3">
      <path class="cls-4" d="M9.82,11.36-.57,16.26,4.55,27.15l10.39-4.9Z"/>
    </g>
  </g>
  <g class="cls-5">
    <g class="cls-6">
      <path class="cls-7" d="M10.59,13.73,5.28,16.24,8.45,23l5.32-2.5Z"/>
    </g>
  </g>
  <g class="cls-8">
    <g class="cls-9">
      <path class="cls-10" d="M18.23-1.9,7.84,3,13,13.89,23.35,9Z"/>
    </g>
  </g>
  <g class="cls-11">
    <g class="cls-12">
      <path class="cls-13" d="M11.83,2.85l-1.5,7.06,4.58,1L16.4,3.82Z"/>
    </g>
  </g>
  <g class="cls-14">
    <g class="cls-15">
      <path class="cls-16" d="M14.76-.35-1,7.1,7.81,25.93l15.81-7.45Z"/>
    </g>
  </g>
</svg>
